<svg width="92" height="85" viewBox="0 0 92 85" fill="none" xmlns="http://www.w3.org/2000/svg">
<path d="M89.5267 26.0973C88.737 24.2058 88.044 22.276 87.4504 20.3153C86.9575 18.5574 86.0702 16.9328 84.855 15.5626C83.638 14.6215 82.352 13.7714 81.0076 13.0197C79.7656 12.304 78.4148 11.7928 77.0076 11.5061C76.4757 11.4925 75.9475 11.5969 75.4614 11.8117C74.9754 12.0264 74.5439 12.346 74.1984 12.7472C73.5131 13.5959 72.9291 14.5203 72.458 15.502C72.1362 16.1597 72.0295 16.9005 72.1526 17.6211C72.3728 18.2056 72.6383 18.7724 72.9465 19.3164C73.1541 19.5559 73.4442 19.7103 73.7602 19.7495C74.0763 19.7886 74.3958 19.7098 74.6565 19.5283C75.3481 19.1305 76.1568 18.9808 76.9466 19.1044C77.791 19.2794 78.6492 19.3807 79.5114 19.4072C80.3053 19.4072 81.1908 20.4667 81.4351 21.6776C81.6911 23.1051 81.6391 24.5701 81.2824 25.9762C80.916 27.1266 80.3969 29.3365 80.0916 30.8501C79.7632 32.4702 79.5287 34.1076 79.3893 35.7542C79.3893 36.9046 78.9008 37.9338 78.4733 38.0247C78.0458 38.1155 77.2824 37.7219 76.7634 37.0862C76.0404 36.3598 75.1494 35.8195 74.1679 35.5121C73.0548 35.2402 71.8917 35.2402 70.7786 35.5121C69.6673 35.8352 68.6302 36.3699 67.7251 37.0862C67.1859 37.5944 66.5392 37.977 65.832 38.2063C65.3626 38.1643 64.9163 37.9853 64.5496 37.6917C64.0133 37.2701 63.4411 36.8952 62.8396 36.5716C61.7223 36.1252 60.5528 35.8201 59.3587 35.6634C57.9591 35.4975 56.5446 35.4975 55.145 35.6634C53.3071 33.7631 51.0342 32.3301 48.519 31.4858C45.8117 30.7171 42.9633 30.5711 40.1905 31.059C37.4178 31.5469 34.794 32.6557 32.5189 34.3011C32.2746 31.9399 31.8777 29.4878 31.4808 27.1266C31.9494 25.1673 32.9407 23.3689 34.351 21.9197C35.7337 20.369 37.5879 19.3065 39.6334 18.8925C40.6411 18.7109 43.9388 18.5596 44.7632 18.4687C60.7938 16.6827 63.2671 4.87646 76.3359 3.33257C71.8422 1.26126 66.9662 0.130425 62.012 0.0106305C57.0579 -0.109165 52.132 0.784621 47.5419 2.63627C44.7212 3.77639 42.1995 5.53836 40.1679 7.78852C38.1363 10.0387 36.6483 12.718 35.8166 15.6231C39.9617 12.1437 44.5382 9.20364 49.435 6.87438C53.7934 5.01013 58.4398 3.89434 63.1755 3.57471C50.5085 6.75453 39.1733 13.8087 30.7785 23.7361C30.4731 22.3133 30.1678 20.9813 29.8624 19.8612C29.5571 18.7412 28.2441 19.3467 26.809 19.7099C25.3738 20.0732 23.7555 19.9823 24.2441 21.2841C25.9659 25.4262 27.3147 29.7114 28.2746 34.0893C26.0617 32.6067 23.5486 31.6217 20.9113 31.2034C18.274 30.7851 15.5764 30.9434 13.0074 31.6674C2.04553 35.2093 -2.96212 49.8309 1.80126 64.3616C6.56463 78.8924 19.2975 87.7622 30.2594 84.2203L30.7785 84.0084L31.3281 84.2203C41.9541 87.6713 54.2594 79.3464 59.3282 65.5725C60.8244 63.2415 62.3816 61.0014 62.8091 60.0932C63.5989 58.4911 64.0064 56.7302 63.9999 54.9469C63.9999 53.2516 65.9542 51.9197 68.3664 51.9197C71.8698 51.9437 75.3672 51.6294 78.8092 50.9812C82.1953 50.3317 85.3833 48.9121 88.1222 46.8339C89.6243 45.6301 90.8084 44.0821 91.5725 42.3234C91.5725 41.4757 91.8474 38.9934 91.9695 36.7835C92.0857 34.6743 91.8693 32.5601 91.3283 30.5171C90.9008 29.4273 90.0764 27.3688 89.5267 26.0973ZM46.4426 37.2679C43.664 35.4212 41.9846 33.6351 42.6869 33.2719C43.3892 32.9086 46.2594 34.1195 49.0075 35.9662C52.4947 38.9148 55.0586 42.7907 56.3969 47.1367C57.7423 51.4063 57.8901 55.9586 56.8243 60.3052C55.7251 63.3324 54.0152 65.512 53.0686 65.3606C52.122 65.2092 51.7251 62.7269 52.2442 59.8208C52.7593 55.8006 52.7593 51.732 52.2442 47.7118C51.7173 43.6267 49.6433 39.8931 46.4426 37.2679Z" fill="url(#paint0_linear)"/>
<defs>
<linearGradient id="paint0_linear" x1="83.2718" y1="-22.5001" x2="-26.5414" y2="-9.2887" gradientUnits="userSpaceOnUse">
<stop stop-color="#4EEFD1"/>
<stop offset="1" stop-color="#00C9FF"/>
</linearGradient>
</defs>
</svg>
