<svg width="24" height="24" viewBox="0 0 24 24" fill="none" xmlns="http://www.w3.org/2000/svg">
<path fillRule="evenodd" clipRule="evenodd" d="M8.056 3.84449C6.94148 2.7185 5.13449 2.7185 4.01997 3.84449C2.90545 4.97048 2.90545 6.79607 4.01997 7.92206L7.96433 11.907L3.83589 16.0779C2.72137 17.2039 2.72137 19.0295 3.83589 20.1555C4.95041 21.2815 6.7574 21.2815 7.87192 20.1555L12.0004 15.9846L16.1281 20.1548C17.2426 21.2807 19.0496 21.2807 20.1641 20.1548C21.2786 19.0288 21.2786 17.2032 20.1641 16.0772L16.0364 11.907L19.98 7.92281C21.0945 6.79682 21.0945 4.97123 19.98 3.84524C18.8655 2.71926 17.0585 2.71926 15.944 3.84525L12.0004 7.82945L8.056 3.84449Z" fill="white"/>
</svg>
