<svg width="40" height="40" viewBox="0 0 40 40" fill="none" xmlns="http://www.w3.org/2000/svg">
<ellipse cx="20" cy="20" rx="20" ry="20" transform="rotate(90 20 20)" fill="white"/>
<path fill-rule="evenodd" clip-rule="evenodd" d="M20.1084 18.1719L25.8309 23.8944C26.1832 24.2468 26.7532 24.2473 27.1045 23.896C27.4582 23.5423 27.4551 22.9746 27.1029 22.6224L20.746 16.2654C20.7457 16.2652 20.7454 16.2649 20.7452 16.2647C20.7449 16.2644 20.7446 16.2641 20.7444 16.2639C20.5678 16.0873 20.3378 15.9996 20.108 16C19.8776 16.0008 19.6477 16.0885 19.4724 16.2639C19.4721 16.2641 19.4718 16.2644 19.4716 16.2647C19.4713 16.2649 19.471 16.2652 19.4708 16.2654L13.1138 22.6224C12.7615 22.9748 12.761 23.5448 13.1122 23.896C13.4659 24.2497 14.0337 24.2466 14.3858 23.8944L20.1084 18.1719Z" fill="#171E26"/>
</svg>
