<svg width="44" height="44" viewBox="0 0 44 44" fill="none" xmlns="http://www.w3.org/2000/svg">
<circle cx="22" cy="22" r="22" fill="white"/>
<g clip-path="url(#clip0)">
<path d="M28.0067 25.538C27.1899 24.7316 26.1703 24.7316 25.3587 25.538C24.7397 26.1519 24.1206 26.7657 23.5119 27.39C23.3455 27.5617 23.205 27.5981 23.0021 27.4836C22.6015 27.2652 22.1749 27.0883 21.79 26.849C19.9952 25.7201 18.4917 24.2686 17.16 22.6351C16.4993 21.8236 15.9114 20.9548 15.5004 19.9768C15.4172 19.7791 15.4328 19.649 15.5941 19.4878C16.2132 18.8895 16.8166 18.2756 17.4253 17.6618C18.2733 16.8086 18.2733 15.8098 17.4201 14.9514C16.9363 14.4624 16.4525 13.9838 15.9686 13.4948C15.4692 12.9953 14.975 12.4907 14.4704 11.9965C13.6536 11.2006 12.634 11.2006 11.8224 12.0017C11.1982 12.6156 10.5999 13.245 9.96523 13.8485C9.37738 14.4052 9.08085 15.0866 9.01842 15.8826C8.91958 17.178 9.23692 18.4005 9.68431 19.5918C10.5999 22.0577 11.9941 24.2478 13.6849 26.2559C15.9686 28.9715 18.6946 31.12 21.8836 32.6703C23.3194 33.3674 24.8073 33.9032 26.4252 33.9917C27.5385 34.0541 28.5061 33.7732 29.2812 32.9044C29.8119 32.3113 30.4101 31.7703 30.972 31.2033C31.8043 30.3605 31.8095 29.3409 30.9824 28.5085C29.994 27.5149 29.0003 26.5264 28.0067 25.538Z" fill="#171E26"/>
<path d="M27.013 21.3918L28.9327 21.064C28.6309 19.3005 27.7986 17.7034 26.5344 16.434C25.1974 15.097 23.5067 14.2543 21.6443 13.9942L21.3738 15.9242C22.8148 16.1271 24.1258 16.7774 25.161 17.8126C26.1391 18.7907 26.7789 20.0288 27.013 21.3918Z" fill="#171E26"/>
<path d="M30.0148 13.0474C27.7986 10.8312 24.9946 9.43179 21.8992 9L21.6287 10.93C24.3027 11.3046 26.7269 12.5167 28.6414 14.426C30.457 16.2416 31.6483 18.5358 32.0801 21.0588L33.9997 20.7311C33.4951 17.8074 32.1165 15.1543 30.0148 13.0474Z" fill="#171E26"/>
</g>
<defs>
<clipPath id="clip0">
<rect width="25" height="25" fill="white" transform="translate(9 9)"/>
</clipPath>
</defs>
</svg>
