<?xml version="1.0" encoding="utf-8"?>
<!-- Generator: Adobe Illustrator 24.2.1, SVG Export Plug-In . SVG Version: 6.00 Build 0)  -->
<svg version="1.1" id="Layer_1" xmlns="http://www.w3.org/2000/svg" xmlns:xlink="http://www.w3.org/1999/xlink" x="0px" y="0px"
	 viewBox="0 0 950 221" style="enable-background:new 0 0 950 221;" xml:space="preserve">
<style type="text/css">
	.st0{fill:url(#SVGID_1_);}
	.st1{fill:url(#SVGID_2_);}
	.st2{fill:url(#SVGID_3_);}
	.st3{fill:url(#SVGID_4_);}
	.st4{fill:url(#SVGID_5_);}
	.st5{fill:url(#SVGID_6_);}
	.st6{fill:url(#SVGID_7_);}
	.st7{fill:url(#SVGID_8_);}
</style>
<g>
	<g>
		
			<linearGradient id="SVGID_1_" gradientUnits="userSpaceOnUse" x1="31.95" y1="110.9" x2="162.95" y2="110.9" gradientTransform="matrix(1 0 0 -1 0 222)">
			<stop  offset="0" style="stop-color:#4EEFD1"/>
			<stop  offset="1" style="stop-color:#00C9FF"/>
		</linearGradient>
		<path class="st0" d="M152.9,185.3H136v-27.4H59.1v18.1c0,2.7-1,5.1-3,6.8c-1.9,1.6-4.3,2.5-7.1,2.5H32v-50.5h14.7
			c1-0.7,2-1.6,3-2.9c1.3-1.6,2.6-3.9,3.8-6.8c1.3-3,2.5-6.9,3.7-11.6c1.2-4.7,2.3-10.6,3.2-17.5c1-6.9,1.8-15.1,2.5-24.4
			c0.7-9.3,1.2-20.2,1.6-32.4l0.1-2.4h80.7v97.9h17.7v41.3c0,2.7-1,5.1-3,6.8C158.1,184.6,155.8,185.3,152.9,185.3z M140.9,180.3
			h11.9c1.6,0,2.9-0.4,3.8-1.2c0.9-0.7,1.3-1.7,1.3-3v-36.3h-17.7V41.9H69.5c-0.3,11.3-0.8,21.4-1.5,30.2
			c-0.7,9.4-1.6,17.7-2.6,24.7c-1,7.1-2.1,13.1-3.3,18c-1.2,4.9-2.6,9.1-4,12.3c-1.5,3.4-3,6-4.6,8s-3.3,3.5-4.9,4.4l-0.6,0.3H37
			v40.5h12c1.6,0,2.9-0.4,3.8-1.2c0.9-0.7,1.3-1.7,1.3-3V153h86.9V180.3z M121.2,139.8H69l2.2-3.8c1.8-3.1,3.6-7,5.3-11.5
			c1.7-4.6,3.2-10.1,4.6-16.4c1.4-6.4,2.6-13.8,3.6-22.1c1.1-8.3,1.9-18,2.5-28.6l0.1-2.4H121v84.8H121.2z M77.6,134.8h38.6V60h-24
			c-0.6,9.8-1.4,18.8-2.4,26.6c-1.1,8.5-2.3,16-3.7,22.5c-1.4,6.5-3,12.3-4.8,17.1C80,129.4,78.8,132.3,77.6,134.8z"/>
	</g>
	<g>
		
			<linearGradient id="SVGID_2_" gradientUnits="userSpaceOnUse" x1="163.65" y1="124.55" x2="287.61" y2="124.55" gradientTransform="matrix(1 0 0 -1 0 222)">
			<stop  offset="0" style="stop-color:#4EEFD1"/>
			<stop  offset="1" style="stop-color:#00C9FF"/>
		</linearGradient>
		<path class="st1" d="M225.8,159.3c-9.2,0-17.7-1.6-25.3-4.7c-7.6-3.1-14.2-7.5-19.6-13c-5.4-5.5-9.7-12.1-12.7-19.6
			s-4.5-15.8-4.5-24.5c0-8.8,1.5-17,4.5-24.5s7.2-14.1,12.7-19.6c5.4-5.5,12-9.9,19.6-13s16.1-4.7,25.3-4.7s17.7,1.6,25.3,4.7
			c7.6,3.1,14.2,7.5,19.6,13s9.7,12.1,12.6,19.6c3,7.5,4.5,15.7,4.5,24.4c0,8.8-1.5,17-4.5,24.5c-3,7.5-7.2,14.1-12.6,19.6
			s-12,9.9-19.6,13C243.4,157.8,234.9,159.3,225.8,159.3z M225.8,40.6c-8.5,0-16.4,1.5-23.4,4.3c-7,2.9-13,6.9-18,11.9
			s-8.9,11-11.6,17.9c-2.7,6.9-4.1,14.5-4.1,22.6s1.4,15.8,4.1,22.7c2.7,6.9,6.6,12.9,11.6,18c5,5,11,9,18,11.9s14.8,4.3,23.4,4.3
			c8.5,0,16.4-1.5,23.4-4.3c7-2.9,13-6.9,17.9-11.9s8.8-11.1,11.5-18c2.7-6.9,4.1-14.6,4.1-22.7s-1.4-15.7-4.1-22.6
			s-6.6-12.9-11.5-18c-4.9-5-11-9-17.9-11.9C242.1,42.1,234.3,40.6,225.8,40.6z M225.8,139.1c-5.7,0-11-1-15.6-2.9
			s-8.7-4.7-11.9-8.4c-3.2-3.6-5.7-8-7.4-13.2c-1.7-5.1-2.5-10.9-2.5-17.2c0-6.3,0.9-12.1,2.5-17.1c1.7-5.1,4.2-9.6,7.4-13.2
			c3.3-3.7,7.3-6.5,11.9-8.4c4.6-1.9,9.9-2.9,15.6-2.9c5.7,0,11,1,15.6,2.9s8.6,4.8,11.9,8.4c3.2,3.6,5.7,8.1,7.4,13.2
			c1.7,5.1,2.5,10.8,2.5,17.1c0,6.4-0.9,12.2-2.5,17.2c-1.7,5.1-4.2,9.6-7.4,13.2c-3.3,3.6-7.2,6.4-11.9,8.4
			C236.8,138.1,231.4,139.1,225.8,139.1z M225.8,60.8c-5.1,0-9.7,0.8-13.7,2.5c-3.9,1.6-7.3,4-10.1,7.1s-4.9,7-6.4,11.4
			c-1.5,4.5-2.3,9.8-2.3,15.6c0,5.8,0.8,11.1,2.3,15.7c1.5,4.5,3.6,8.3,6.4,11.4c2.7,3.1,6.1,5.4,10.1,7.1c4,1.7,8.6,2.5,13.7,2.5
			c5.1,0,9.7-0.8,13.6-2.5c3.9-1.6,7.3-4,10.1-7.1s4.9-6.9,6.4-11.4c1.5-4.5,2.3-9.8,2.3-15.7c0-5.8-0.8-11-2.3-15.6
			c-1.5-4.5-3.6-8.3-6.4-11.4c-2.7-3.1-6.1-5.5-10.1-7.1C235.4,61.6,230.9,60.8,225.8,60.8z"/>
	</g>
	<g>
		
			<linearGradient id="SVGID_3_" gradientUnits="userSpaceOnUse" x1="338.25" y1="124.5" x2="367.4101" y2="124.5" gradientTransform="matrix(1 0 0 -1 0 222)">
			<stop  offset="0" style="stop-color:#4EEFD1"/>
			<stop  offset="1" style="stop-color:#00C9FF"/>
		</linearGradient>
		<path class="st2" d="M367.5,158.1h-29.2V36.9h29.2V158.1z M343.3,153.1h19.2V41.9h-19.2V153.1z"/>
	</g>
	<g>
		
			<linearGradient id="SVGID_4_" gradientUnits="userSpaceOnUse" x1="424.65" y1="124.5" x2="525.35" y2="124.5" gradientTransform="matrix(1 0 0 -1 0 222)">
			<stop  offset="0" style="stop-color:#4EEFD1"/>
			<stop  offset="1" style="stop-color:#00C9FF"/>
		</linearGradient>
		<path class="st3" d="M525.3,158.1h-29.2V60h-42.3v97.9h-29.2v-121h100.6v121.1H525.3z M501.1,153.1h19.2V41.9h-90.6v111.1h19.2V55
			h52.3L501.1,153.1L501.1,153.1z"/>
	</g>
	<g>
		
			<linearGradient id="SVGID_5_" gradientUnits="userSpaceOnUse" x1="544.65" y1="124.5" x2="573.8101" y2="124.5" gradientTransform="matrix(1 0 0 -1 0 222)">
			<stop  offset="0" style="stop-color:#4EEFD1"/>
			<stop  offset="1" style="stop-color:#00C9FF"/>
		</linearGradient>
		<path class="st4" d="M573.8,158.1h-29.2V36.9h29.2V158.1z M549.7,153.1h19.2V41.9h-19.2V153.1z"/>
	</g>
	<g>
		
			<linearGradient id="SVGID_6_" gradientUnits="userSpaceOnUse" x1="586.55" y1="124.5" x2="690.8501" y2="124.5" gradientTransform="matrix(1 0 0 -1 0 222)">
			<stop  offset="0" style="stop-color:#4EEFD1"/>
			<stop  offset="1" style="stop-color:#00C9FF"/>
		</linearGradient>
		<path class="st5" d="M645.3,159.3c-9,0-17.2-1.6-24.4-4.6c-7.2-3.1-13.5-7.4-18.5-13c-5.1-5.5-9-12.1-11.7-19.6
			s-4.1-15.8-4.1-24.6c0-5.9,0.7-11.7,2-17c1.3-5.4,3.2-10.4,5.7-15c2.5-4.5,5.5-8.7,9.1-12.4c3.5-3.7,7.6-6.8,12-9.4
			s9.4-4.6,14.6-5.9c5.2-1.4,10.9-2,16.7-2c4.4,0,8.6,0.4,12.6,1.2c3.9,0.8,7.7,1.9,11.1,3.3c3.5,1.4,6.7,3.1,9.6,5.1
			c2.9,2,5.6,4.2,7.9,6.5l1.5,1.5L680,65.9c-0.6,0.9-1.4,1.7-2.4,2.4c-1.2,0.8-2.7,1.3-4.5,1.3s-3.6-0.6-5.3-1.8
			c-1.3-0.9-2.8-1.9-4.6-2.9c-1.7-1-3.9-2-6.6-2.8c-2.6-0.8-6-1.2-10.1-1.2c-4.5,0-8.6,0.8-12.4,2.4c-3.7,1.6-6.9,4-9.6,7
			c-2.7,3.1-4.8,6.9-6.3,11.4c-1.5,4.6-2.3,9.9-2.3,15.8s0.8,11.3,2.5,15.8c1.6,4.5,3.8,8.4,6.6,11.5s6,5.4,9.7,7s7.7,2.4,11.9,2.4
			c2.6,0,5-0.1,7.1-0.4c2-0.2,3.9-0.7,5.7-1.2c1.7-0.6,3.4-1.3,4.9-2.3c1.5-0.9,3.1-2.1,4.7-3.6l0.1-0.1c0.7-0.6,1.5-1.1,2.3-1.5
			c1-0.5,2.1-0.7,3.2-0.7c2,0,3.8,0.8,5.2,2.2l11,11.7l-1.3,1.7c-4.9,6.3-11.1,11.1-18.4,14.3C663.8,157.6,655.2,159.3,645.3,159.3z
			 M646.7,40.6c-5.5,0-10.7,0.6-15.5,1.9c-4.8,1.2-9.3,3.1-13.3,5.4c-4,2.4-7.7,5.2-10.9,8.6c-3.2,3.3-6,7.1-8.3,11.3
			c-2.3,4.2-4,8.8-5.2,13.7c-1.2,5-1.8,10.3-1.8,15.9c0,8.3,1.3,16,3.8,22.9c2.5,6.9,6.1,12.9,10.7,18c4.6,5,10.2,8.9,16.8,11.8
			c6.6,2.8,14.1,4.2,22.5,4.2c9.2,0,17.2-1.5,23.8-4.4c5.9-2.6,11-6.4,15.2-11.2l-8-8.6c-0.4-0.5-0.9-0.6-1.5-0.6
			c-0.4,0-0.7,0.1-1,0.2c-0.5,0.2-0.9,0.5-1.3,0.9c-1.8,1.6-3.6,3-5.4,4.1c-1.8,1.1-3.8,2-5.8,2.7c-2.1,0.7-4.3,1.2-6.7,1.5
			c-2.3,0.3-4.9,0.4-7.7,0.4c-4.9,0-9.6-0.9-13.9-2.8c-4.3-1.9-8.2-4.6-11.4-8.3c-3.2-3.6-5.8-8-7.6-13.2c-1.8-5.1-2.7-11-2.7-17.5
			c0-6.4,0.8-12.3,2.5-17.3c1.7-5.2,4.1-9.6,7.2-13.1c3.1-3.6,7-6.4,11.3-8.3s9.2-2.8,14.4-2.8c4.6,0,8.5,0.5,11.6,1.5
			c3,1,5.6,2.1,7.6,3.3c1.9,1.1,3.6,2.2,5,3.1c0.9,0.6,1.7,0.9,2.5,0.9c0.7,0,1.3-0.1,1.6-0.3c0.5-0.4,0.9-0.8,1.2-1.2l6.8-9.3
			c-1.7-1.6-3.6-3-5.6-4.4c-2.6-1.8-5.6-3.3-8.7-4.6c-3.1-1.3-6.6-2.3-10.2-3C654.7,41,650.7,40.6,646.7,40.6z"/>
	</g>
	<g>
		
			<linearGradient id="SVGID_7_" gradientUnits="userSpaceOnUse" x1="694.05" y1="123.85" x2="807.45" y2="123.85" gradientTransform="matrix(1 0 0 -1 0 222)">
			<stop  offset="0" style="stop-color:#4EEFD1"/>
			<stop  offset="1" style="stop-color:#00C9FF"/>
		</linearGradient>
		<path class="st6" d="M708.5,159.3c-4.6,0-7.9-0.4-10-1.3c-3.8-1.5-4.4-4.2-4.4-5.6V135h8.9c1.5,0,3-0.2,4.6-0.7
			c1.4-0.4,2.8-1.5,4.3-3.2c1.6-1.9,3.2-4.8,4.8-8.7c1.6-4,3.1-9.6,4.4-16.7c1.3-7.2,2.5-16.2,3.5-27s1.7-24,2.1-39.3l0.1-2.4h80.7
			v121.1h-29.2V60h-24.1c-0.8,13.4-1.8,25.2-3.2,35.2c-1.4,10.6-3.1,19.7-5.1,27.1c-2,7.5-4.3,13.7-6.9,18.4
			c-2.6,4.8-5.6,8.6-8.7,11.3c-3.2,2.8-6.8,4.7-10.5,5.7C716.2,158.8,712.3,159.3,708.5,159.3z M699,140.1v12.3c0,0.4,0.8,0.8,1.2,1
			c1.1,0.4,3.4,0.9,8.2,0.9c3.5,0,6.9-0.4,10-1.3c3-0.8,5.9-2.4,8.5-4.6c2.7-2.3,5.3-5.7,7.6-9.9c2.4-4.4,4.5-10.2,6.4-17.3
			c1.9-7.2,3.6-16.1,4.9-26.4c1.4-10.4,2.5-22.9,3.3-37.2l0.1-2.4H783V153h19.2V41.9h-70.8c-0.4,14.4-1.1,26.9-2.1,37.2
			c-1,10.9-2.2,20.1-3.6,27.4c-1.4,7.4-3,13.3-4.7,17.6c-1.8,4.4-3.6,7.7-5.6,10.1c-2.1,2.5-4.3,4.1-6.6,4.8c-2.1,0.6-4.1,0.9-6,0.9
			H699V140.1z"/>
	</g>
	<g>
		
			<linearGradient id="SVGID_8_" gradientUnits="userSpaceOnUse" x1="812.0771" y1="124.5" x2="918.0664" y2="124.5" gradientTransform="matrix(1 0 0 -1 0 222)">
			<stop  offset="0" style="stop-color:#4EEFD1"/>
			<stop  offset="1" style="stop-color:#00C9FF"/>
		</linearGradient>
		<path class="st7" d="M918,158.1h-29v-47.4h-8.6c-2,0.1-3.7,0.6-5.4,1.5c-1.6,0.9-3.2,2.7-4.8,5.3l-18.6,31.1
			c-1.7,2.9-4,5.2-6.8,6.8c-2.8,1.7-6.3,2.6-10.2,2.6H812l27.8-44.1c1.8-2.9,3.8-5.4,6-7.4c0.8-0.8,1.7-1.5,2.7-2.1
			c-2.2-0.9-4.3-2-6.1-3.1c-3.3-2.1-6.1-4.6-8.3-7.4s-3.8-5.9-4.9-9.3c-1.1-3.3-1.6-7-1.6-10.7c0-5.3,1.1-10.3,3.2-14.8
			c2.1-4.5,5.2-8.5,9.1-11.8c3.9-3.3,8.8-5.8,14.4-7.6c5.6-1.8,12-2.7,19.1-2.7H918L918,158.1L918,158.1z M894,153.1h19V41.9h-39.6
			c-6.6,0-12.5,0.8-17.6,2.4c-5,1.6-9.3,3.9-12.7,6.7c-3.4,2.8-6,6.2-7.8,10c-1.8,3.9-2.7,8.1-2.7,12.7c0,3.2,0.5,6.3,1.4,9.2
			c0.9,2.8,2.3,5.4,4.1,7.8c1.8,2.3,4.2,4.5,7,6.3c2.9,1.8,6.3,3.3,10.2,4.4l6.8,1.9l-6.5,2.8c-2.5,1.1-4.6,2.4-6.5,4.1
			s-3.6,3.8-5.1,6.3l-23,36.4h13.6c3,0,5.6-0.6,7.7-1.8c2.1-1.3,3.8-2.9,5.1-5.1l18.6-31.1c2.1-3.5,4.2-5.8,6.6-7.1
			c2.3-1.3,4.9-2,7.6-2.2h0.1h13.6v47.4H894z M894,92.3h-20.7c-4,0-7.4-0.4-10.2-1.3c-2.9-0.9-5.2-2.2-7-3.9
			c-1.8-1.7-3.1-3.8-3.8-6.2c-0.7-2.2-1-4.6-1-7.3c0-2.4,0.3-4.7,1-6.8c0.7-2.3,2-4.3,3.8-6.1c1.7-1.7,4.1-3.1,6.9-4
			c2.8-0.9,6.2-1.4,10.3-1.4h20.6v37H894z M873.5,60.3c-3.5,0-6.5,0.4-8.7,1.1c-2.1,0.7-3.8,1.7-5,2.9c-1.2,1.2-2,2.5-2.5,4
			c-0.5,1.7-0.8,3.5-0.8,5.3c0,2.1,0.3,4.1,0.8,5.8c0.5,1.6,1.3,2.9,2.4,4c1.2,1.1,2.9,2.1,5,2.7c2.3,0.7,5.2,1,8.7,1h15.7V60.3
			H873.5z"/>
	</g>
</g>
</svg>
