<?xml version="1.0" encoding="utf-8"?>
<!-- Generator: Adobe Illustrator 24.2.1, SVG Export Plug-In . SVG Version: 6.00 Build 0)  -->
<svg version="1.1" id="Layer_1" xmlns="http://www.w3.org/2000/svg" xmlns:xlink="http://www.w3.org/1999/xlink" x="0px" y="0px"
	 viewBox="0 0 950 221" style="enable-background:new 0 0 950 221;" xml:space="preserve">
<style type="text/css">
	.st0{fill:url(#SVGID_1_);}
	.st1{fill:url(#SVGID_2_);}
	.st2{fill:url(#SVGID_3_);}
	.st3{fill:url(#SVGID_4_);}
	.st4{fill:url(#SVGID_5_);}
	.st5{fill:url(#SVGID_6_);}
	.st6{fill:url(#SVGID_7_);}
	.st7{fill:url(#SVGID_8_);}
</style>
<g>
	
		<linearGradient id="SVGID_1_" gradientUnits="userSpaceOnUse" x1="66.4326" y1="111.0827" x2="903.1837" y2="102.8794" gradientTransform="matrix(1 0 0 -1 0 222)">
		<stop  offset="0" style="stop-color:#4EEFD1"/>
		<stop  offset="1" style="stop-color:#00C9FF"/>
	</linearGradient>
	<path class="st0" d="M146.1,36.9H63.7l-0.1,2.4c-0.3,12-0.8,22.7-1.5,31.9c-0.7,9.1-1.5,17.2-2.4,24c-0.9,6.7-2,12.5-3.1,17.2
		c-1.1,4.6-2.3,8.4-3.6,11.4c-1.2,2.9-2.4,5.1-3.6,6.6c-1,1.2-1.9,2.2-2.9,2.8H31.9v52.2h18.6c3.1,0,5.6-0.9,7.6-2.6
		c2.1-1.8,3.2-4.3,3.2-7.3v-17.3h72.3v27.1h18.6c3.1,0,5.6-0.9,7.6-2.6c2.1-1.8,3.2-4.3,3.2-7.3v-42.3h-17.1L146.1,36.9L146.1,36.9z
		 M114.3,62v71.2H79.9c1.2-2.5,2.4-5.4,3.4-8.5c1.6-4.7,3.1-10.2,4.5-16.5c1.3-6.2,2.5-13.4,3.5-21.5c0.9-7.4,1.7-15.7,2.3-24.9
		L114.3,62L114.3,62z"/>
	
		<linearGradient id="SVGID_2_" gradientUnits="userSpaceOnUse" x1="66.5738" y1="125.9856" x2="903.2985" y2="117.7824" gradientTransform="matrix(1 0 0 -1 0 222)">
		<stop  offset="0" style="stop-color:#4EEFD1"/>
		<stop  offset="1" style="stop-color:#00C9FF"/>
	</linearGradient>
	<path class="st1" d="M270.2,53.5c-5.4-5.5-12-9.9-19.6-13.1s-16.2-4.8-25.4-4.8c-9.2,0-17.8,1.6-25.4,4.7
		c-7.6,3.1-14.3,7.5-19.7,13.1s-9.7,12.2-12.7,19.7c-3,7.5-4.5,15.7-4.5,24.4c0,8.7,1.5,16.9,4.5,24.4c3,7.5,7.3,14.1,12.7,19.7
		c5.5,5.6,12.1,10,19.7,13.1c7.6,3.1,16.2,4.7,25.4,4.7c9.2,0,17.8-1.6,25.4-4.7c7.6-3.1,14.2-7.6,19.7-13.1
		c5.4-5.6,9.7-12.2,12.7-19.7c3-7.5,4.5-15.7,4.5-24.4c0-8.6-1.5-16.8-4.5-24.3C279.9,65.7,275.6,59.1,270.2,53.5z M225.2,132.2
		c-4.8,0-9.1-0.8-12.8-2.3c-3.7-1.5-6.8-3.8-9.3-6.6c-2.5-2.9-4.5-6.6-5.9-10.8c-1.4-4.3-2.1-9.3-2.1-14.8c0-5.5,0.7-10.4,2.1-14.8
		c1.4-4.3,3.3-7.9,5.9-10.8c2.5-2.9,5.6-5.1,9.3-6.7c3.7-1.6,8-2.4,12.8-2.4c4.7,0,9,0.8,12.7,2.4c3.6,1.5,6.7,3.8,9.3,6.7
		c2.5,2.9,4.5,6.6,5.9,10.8c1.4,4.3,2.1,9.3,2.1,14.8c0,5.5-0.7,10.5-2.1,14.8c-1.4,4.3-3.3,7.9-5.9,10.8c-2.5,2.9-5.6,5.1-9.2,6.6
		C234.2,131.4,229.9,132.2,225.2,132.2z"/>
	
		<linearGradient id="SVGID_3_" gradientUnits="userSpaceOnUse" x1="66.4802" y1="127.2157" x2="903.5157" y2="119.0094" gradientTransform="matrix(1 0 0 -1 0 222)">
		<stop  offset="0" style="stop-color:#4EEFD1"/>
		<stop  offset="1" style="stop-color:#00C9FF"/>
	</linearGradient>
	<rect x="334.7" y="36.9" class="st2" width="31.8" height="121.3"/>
	
		<linearGradient id="SVGID_4_" gradientUnits="userSpaceOnUse" x1="66.5494" y1="128.3978" x2="903.3728" y2="120.1937" gradientTransform="matrix(1 0 0 -1 0 222)">
		<stop  offset="0" style="stop-color:#4EEFD1"/>
		<stop  offset="1" style="stop-color:#00C9FF"/>
	</linearGradient>
	<polygon class="st3" points="420.3,158.2 452.1,158.2 452.1,62 490.3,62 490.3,158.2 522.1,158.2 522.1,36.9 420.3,36.9 	"/>
	
		<linearGradient id="SVGID_5_" gradientUnits="userSpaceOnUse" x1="66.4235" y1="129.2242" x2="903.459" y2="121.018" gradientTransform="matrix(1 0 0 -1 0 222)">
		<stop  offset="0" style="stop-color:#4EEFD1"/>
		<stop  offset="1" style="stop-color:#00C9FF"/>
	</linearGradient>
	<rect x="539.5" y="36.9" class="st4" width="31.8" height="121.3"/>
	
		<linearGradient id="SVGID_6_" gradientUnits="userSpaceOnUse" x1="66.593" y1="130.0562" x2="903.3504" y2="121.8527" gradientTransform="matrix(1 0 0 -1 0 222)">
		<stop  offset="0" style="stop-color:#4EEFD1"/>
		<stop  offset="1" style="stop-color:#00C9FF"/>
	</linearGradient>
	<path class="st5" d="M671.4,123.7c-2-0.8-4.2-0.7-6.1,0.2c-0.9,0.4-1.8,1-2.7,1.7c-1.5,1.3-2.9,2.4-4.3,3.3c-1.4,0.8-2.8,1.5-4.4,2
		c-1.6,0.5-3.3,0.9-5.1,1.1c-1.9,0.2-4,0.3-6.3,0.3c-3.9,0-7.5-0.8-10.9-2.3c-3.3-1.5-6.3-3.7-8.8-6.6c-2.5-2.9-4.6-6.6-6.1-10.9
		c-1.5-4.3-2.3-9.4-2.3-15.1c0-5.6,0.7-10.7,2.1-15c1.3-4.3,3.3-7.9,5.7-10.8c2.4-2.9,5.3-5.1,8.6-6.6c3.3-1.5,7.1-2.3,11.1-2.3
		c2.6,0,4.9,0.2,6.8,0.6c1.9,0.4,3.6,0.9,5,1.4c1.4,0.5,2.6,1.2,3.6,1.8c1.1,0.7,2.2,1.4,3.1,2c1,0.7,2,1.2,2.9,1.7
		c1.2,0.6,2.5,0.9,3.8,0.9c2,0,3.6-0.5,4.8-1.4c0.9-0.7,1.8-1.6,2.5-2.5l10.3-13.9l-1.5-1.5c-2.3-2.3-4.9-4.5-7.8-6.5
		c-2.9-2-6.2-3.7-9.6-5.2c-3.4-1.4-7.2-2.5-11.1-3.3s-8.2-1.2-12.7-1.2c-8.8,0-16.9,1.5-24.2,4.6c-7.3,3-13.7,7.4-19,12.9
		c-5.3,5.5-9.4,12.1-12.3,19.6c-2.9,7.5-4.4,15.9-4.4,24.8c0,8.8,1.4,17,4,24.5c2.7,7.5,6.6,14.2,11.6,19.7
		c5,5.5,11.2,9.9,18.5,13.1c7.2,3.1,15.4,4.7,24.5,4.7c9.8,0,18.5-1.6,25.8-4.9c7.3-3.3,13.5-8.2,18.4-14.6l1.3-1.7l-12.1-12.8
		C673.3,124.6,672.4,124,671.4,123.7z"/>
	
		<linearGradient id="SVGID_7_" gradientUnits="userSpaceOnUse" x1="66.6085" y1="130.5502" x2="903.3506" y2="122.3469" gradientTransform="matrix(1 0 0 -1 0 222)">
		<stop  offset="0" style="stop-color:#4EEFD1"/>
		<stop  offset="1" style="stop-color:#00C9FF"/>
	</linearGradient>
	<path class="st6" d="M723.1,39.4c-0.3,11.5-0.7,21.9-1.3,30.7c-0.6,8.8-1.4,16.7-2.2,23.3c-0.8,6.6-1.8,12.2-2.9,16.8
		c-1,4.5-2.2,8.4-3.3,11.4c-1.1,2.9-2.2,5.2-3.4,6.7c-1.1,1.5-2.2,2.7-3.3,3.4c-1,0.7-2,1.1-2.9,1.3c-1.1,0.2-2.2,0.3-3.2,0.3h-9.1
		v18.9c0,1.5,0.6,4.3,4.4,5.9c2.3,1,5.8,1.4,10.8,1.4c4,0,7.8-0.5,11.4-1.3c3.8-0.9,7.4-2.8,10.6-5.5c3.2-2.7,6.2-6.4,8.9-11.1
		c2.6-4.6,5-10.7,7-18.1c2-7.3,3.7-16.3,5.2-26.7c1.4-9.8,2.5-21.5,3.2-34.8h20.6v96.3h31.8V36.9h-82.4L723.1,39.4z"/>
	
		<linearGradient id="SVGID_8_" gradientUnits="userSpaceOnUse" x1="66.6416" y1="132.2588" x2="903.3653" y2="124.0556" gradientTransform="matrix(1 0 0 -1 0 222)">
		<stop  offset="0" style="stop-color:#4EEFD1"/>
		<stop  offset="1" style="stop-color:#00C9FF"/>
	</linearGradient>
	<path class="st7" d="M872.6,36.9c-7.1,0-13.6,0.9-19.2,2.8c-5.7,1.8-10.6,4.4-14.6,7.8c-4,3.3-7.1,7.3-9.2,11.9
		c-2.1,4.6-3.2,9.6-3.2,14.9c0,3.6,0.5,7.2,1.5,10.5c1,3.4,2.6,6.5,4.7,9.3c2.1,2.8,4.7,5.3,7.9,7.4c1.8,1.2,3.7,2.3,5.8,3.2
		c-1.1,0.7-2.2,1.6-3.1,2.5c-2.3,2.1-4.4,4.7-6.2,7.6l-25.8,43.4h24.6c4.3,0,8-0.9,11.1-2.8c3.1-1.8,5.6-4.3,7.5-7.5l16.1-29.6
		c1.5-2.7,3.1-4.5,4.7-5.4c1.7-0.9,3.5-1.3,5.5-1.3h5.8v46.6H918V36.9H872.6z M864.7,63.2c2-0.7,4.6-1.1,7.9-1.1h13.8v24.1h-13.8
		c-3.3,0-6-0.3-8-1c-1.8-0.6-3.3-1.4-4.3-2.4c-1-1-1.6-2.2-2-3.5c-0.4-1.6-0.6-3.4-0.6-5.3c0-1.6,0.2-3.2,0.6-4.7
		c0.4-1.3,1-2.5,2-3.6C861.4,64.8,862.8,63.9,864.7,63.2z"/>
</g>
</svg>
