<?xml version="1.0" encoding="utf-8"?>
<!-- Generator: Adobe Illustrator 24.2.1, SVG Export Plug-In . SVG Version: 6.00 Build 0)  -->
<svg version="1.1" id="Layer_1" xmlns="http://www.w3.org/2000/svg" xmlns:xlink="http://www.w3.org/1999/xlink" x="0px" y="0px"
	 viewBox="0 0 950 221" style="enable-background:new 0 0 950 221;" xml:space="preserve">
<style type="text/css">
	.st0{fill:url(#SVGID_1_);}
	.st1{fill:url(#SVGID_2_);}
	.st2{fill:url(#SVGID_3_);}
	.st3{fill:url(#SVGID_4_);}
	.st4{fill:url(#SVGID_5_);}
	.st5{fill:url(#SVGID_6_);}
	.st6{fill:url(#SVGID_7_);}
	.st7{fill:url(#SVGID_8_);}
	.st8{fill:url(#SVGID_9_);}
	.st9{fill:url(#SVGID_10_);}
	.st10{fill:url(#SVGID_11_);}
</style>
<g>
	
		<linearGradient id="SVGID_1_" gradientUnits="userSpaceOnUse" x1="29.05" y1="111.5" x2="120.95" y2="111.5" gradientTransform="matrix(1 0 0 -1 0 222)">
		<stop  offset="0" style="stop-color:#4EEFD1"/>
		<stop  offset="1" style="stop-color:#00C9FF"/>
	</linearGradient>
	<path class="st0" d="M115.7,116.1c-1.6-2.2-3.7-4.3-6-6.1c-1.2-1-2.5-1.8-3.8-2.7c3.6-2.7,6.4-5.9,8.4-9.6
		c2.6-4.8,3.9-10.1,3.9-15.9c0-4.9-1.1-9.5-3.2-13.6s-5.2-7.6-9.1-10.5s-8.5-5.1-14-6.7c-5.4-1.6-11.4-2.3-18-2.3
		c-7.9,0-15.2,1.1-21.8,3.4c-6.6,2.3-12.3,5.5-17.1,9.5l-1.5,1.3L40.4,76l0.1,0.2c0.9,1.5,1.9,2.5,3,3.3c2.3,1.6,5.8,1.9,9.6-0.2
		c1.4-0.8,3.1-1.7,5.1-2.6c1.9-0.9,4.1-1.8,6.7-2.5c2.5-0.7,5.5-1.1,8.9-1.1c5.8,0,10.2,1,13,3.1c2.6,1.9,3.9,4.5,3.9,7.7
		c0,3.9-1.4,6.7-4.2,8.7c-3.1,2.1-7.7,3.2-13.9,3.2H55.2l0.1,24h19.2c3-0.1,5.7,0.2,8.1,0.9c2.4,0.6,4.4,1.5,6,2.7
		c1.6,1.1,2.7,2.4,3.6,4.1c0.9,1.6,1.3,3.4,1.3,5.4c0,5.4-1.5,9.1-4.5,11.4c-3.2,2.4-7.9,3.7-13.9,3.7c-4.1,0-7.6-0.5-10.5-1.5
		c-3-1-5.6-2.1-7.7-3.3c-2.3-1.3-4.2-2.4-5.9-3.5c-3.8-2.4-7.5-2.6-10.5-0.8c-1.2,0.7-2.3,1.7-3.1,2.8l-8.3,13.2l1.5,1.4
		c2.6,2.4,5.6,4.6,8.9,6.6c3.3,1.9,6.9,3.6,10.6,5c3.7,1.4,7.7,2.5,11.8,3.2c4.1,0.8,8.3,1.2,12.4,1.2c7.3,0,13.9-1,19.6-3.1
		c5.8-2.1,10.7-4.9,14.7-8.5s7.1-7.9,9.2-12.9c2.1-4.9,3.2-10.2,3.2-15.8c0-2.9-0.5-5.8-1.4-8.4
		C118.7,120.8,117.4,118.3,115.7,116.1z M113.3,145.7c-1.8,4.3-4.5,8-8,11.1c-3.5,3.2-7.9,5.7-13.1,7.5c-5.2,1.9-11.2,2.8-18,2.8
		c-3.8,0-7.7-0.4-11.5-1.1s-7.5-1.7-11-3c-3.5-1.3-6.8-2.8-9.8-4.6c-2.4-1.4-4.5-2.9-6.5-4.5l6-9.5c0.4-0.5,0.9-1,1.5-1.4
		c1.4-0.8,3.1-0.6,5.3,0.7c1.7,1.1,3.8,2.3,6.1,3.6c2.4,1.3,5.3,2.6,8.6,3.7c3.4,1.1,7.5,1.7,12.1,1.7c7.1,0,12.8-1.6,16.9-4.7
		c4.3-3.3,6.5-8.4,6.5-15.4c0-2.9-0.6-5.5-1.9-7.8c-1.2-2.3-2.9-4.2-5.1-5.8c-2.1-1.5-4.7-2.7-7.6-3.4c-2.9-0.7-6.1-1.1-9.4-1H60.3
		l-0.1-14h12.4c7.2,0,12.8-1.4,16.7-4.1c4.2-2.9,6.4-7.2,6.4-12.8c0-4.9-2-8.9-5.9-11.8c-3.7-2.7-9.1-4.1-16-4.1
		c-3.9,0-7.4,0.4-10.3,1.3c-2.8,0.8-5.4,1.8-7.5,2.8c-2,1-3.8,1.9-5.3,2.7c-1.1,0.6-2,0.9-2.8,0.9c-0.7,0-1.2-0.1-1.6-0.4
		c-0.4-0.2-0.9-0.8-1.6-1.8l-4.9-9.4c4-3,8.7-5.5,14-7.3c6.1-2.1,12.8-3.1,20.1-3.1c6.1,0,11.7,0.7,16.6,2.1c4.8,1.4,9,3.4,12.4,5.9
		c3.3,2.5,5.9,5.4,7.6,8.8c1.8,3.4,2.6,7.2,2.6,11.3c0,4.9-1.1,9.4-3.3,13.5c-2.1,4-5.5,7.3-10,9.9l-4.1,2.3l4.2,2.1
		c2.4,1.2,4.6,2.6,6.6,4.2s3.7,3.3,5.1,5.2c1.4,1.8,2.4,3.9,3.2,6c0.8,2.1,1.1,4.4,1.1,6.8C116,136.8,115.1,141.4,113.3,145.7z"/>
	
		<linearGradient id="SVGID_2_" gradientUnits="userSpaceOnUse" x1="134.25" y1="111.45" x2="267.1501" y2="111.45" gradientTransform="matrix(1 0 0 -1 0 222)">
		<stop  offset="0" style="stop-color:#4EEFD1"/>
		<stop  offset="1" style="stop-color:#00C9FF"/>
	</linearGradient>
	<path class="st1" d="M243.5,50.1c-1,0.1-2,0.3-2.8,0.6c-0.9,0.4-1.8,0.9-2.5,1.6c-0.7,0.7-1.4,1.6-2,2.8L204,116.7
		c-1,1.9-2,3.9-3,6c-0.1,0.2-0.2,0.4-0.3,0.7c-0.1-0.2-0.1-0.3-0.2-0.5l0,0c-0.9-2-1.8-4-2.8-5.9l-32.5-61.9c-0.6-1.1-1.2-2-1.9-2.7
		c-0.8-0.7-1.6-1.3-2.5-1.7c-0.8-0.3-1.8-0.5-2.9-0.6C157,50,156.1,50,155,50h-20.7v121.1h26.2V98.3l28.1,53.1
		c1.1,2.1,2.5,3.8,4.4,4.9c1.8,1.1,3.9,1.7,6.3,1.7h3.4c4.7,0,8.4-2.3,10.6-6.5L241,98.3V171h26.2V50h-20.7
		C245.4,50,244.4,50,243.5,50.1z M262.2,166.1H246V97.3c0-1.4,0-2.9,0.1-4.6s0.2-3.4,0.4-5.2l-4.7-1.4l-33.1,63
		c-1.4,2.6-3.3,3.9-6.2,3.9h-3.4c-1.4,0-2.6-0.3-3.7-1c-1-0.6-1.9-1.6-2.5-2.9L159.5,86l-4.7,1.4c0.2,1.8,0.3,3.5,0.4,5.3
		c0.1,1.7,0.2,3.3,0.2,4.7v68.8h-16.2V55h15.7c0.9,0,1.8,0,2.6,0.1c0.5,0,1,0.1,1.4,0.3c0.3,0.1,0.6,0.3,0.8,0.6
		c0.2,0.2,0.6,0.7,1,1.5l32.5,61.9c0.9,1.8,1.8,3.7,2.7,5.6s1.7,3.9,2.5,6l2.4,6.1l2.3-6.2c0.8-2.1,1.6-4.1,2.5-6.1s1.8-3.9,2.8-5.7
		l32.2-61.7c0.4-0.8,0.8-1.3,1-1.5c0.3-0.3,0.6-0.5,0.9-0.6c0.4-0.1,0.8-0.2,1.3-0.3c0.7,0,1.6-0.1,2.6-0.1h15.7L262.2,166.1
		L262.2,166.1z"/>
	
		<linearGradient id="SVGID_3_" gradientUnits="userSpaceOnUse" x1="311.7484" y1="126.2" x2="353.4484" y2="126.2" gradientTransform="matrix(1 0 0 -1 0 222)">
		<stop  offset="0" style="stop-color:#4EEFD1"/>
		<stop  offset="1" style="stop-color:#00C9FF"/>
	</linearGradient>
	<path class="st2" d="M339.7,88.1c-0.7-1.8-1.5-4-2.3-6.4c-0.8-2.5-1.6-5.2-2.4-8.1l-2.5-9.2l-2.3,9.3c-0.7,2.9-1.5,5.7-2.3,8.2
		s-1.6,4.7-2.3,6.6l-13.7,38.7h41.7L339.7,88.1L339.7,88.1z M318.9,122l11.3-31.9c0.8-1.9,1.6-4.2,2.4-6.8v-0.1l0,0
		c0.8,2.6,1.6,4.8,2.4,6.7l11.4,32.1C346.4,122,318.9,122,318.9,122z"/>
	
		<linearGradient id="SVGID_4_" gradientUnits="userSpaceOnUse" x1="271.45" y1="111.45" x2="393.95" y2="111.45" gradientTransform="matrix(1 0 0 -1 0 222)">
		<stop  offset="0" style="stop-color:#4EEFD1"/>
		<stop  offset="1" style="stop-color:#00C9FF"/>
	</linearGradient>
	<path class="st3" d="M318.7,50l-47.2,121.1h22.4c2.6,0,4.8-0.7,6.6-2.2c1.7-1.4,2.9-3,3.6-4.8l7.3-20.5h42.8l7.3,20.5v0.1
		c0.8,2,2.1,3.6,3.7,4.8c1.7,1.3,4,2,6.6,2H394L346.6,50H318.7z M371.7,166.1c-1.5,0-2.7-0.3-3.6-1c-0.9-0.7-1.6-1.6-2.1-2.7
		l-8.4-23.8h-49.9l-8.4,23.8c-0.3,0.9-1,1.7-2,2.5c-0.9,0.7-2.1,1.1-3.5,1.1h-15.1L322,54.9h21.1L386.4,166L371.7,166.1L371.7,166.1
		z"/>
	
		<linearGradient id="SVGID_5_" gradientUnits="userSpaceOnUse" x1="398.1501" y1="111.45" x2="475.4698" y2="111.45" gradientTransform="matrix(1 0 0 -1 0 222)">
		<stop  offset="0" style="stop-color:#4EEFD1"/>
		<stop  offset="1" style="stop-color:#00C9FF"/>
	</linearGradient>
	<path class="st4" d="M475.5,50h-77.3v121.1h29.2V73.2h48.2V50H475.5z M470.5,68.2h-48.2v97.9h-19.2V55h67.3v13.2H470.5z"/>
	
		<linearGradient id="SVGID_6_" gradientUnits="userSpaceOnUse" x1="496.6259" y1="126.2" x2="538.3259" y2="126.2" gradientTransform="matrix(1 0 0 -1 0 222)">
		<stop  offset="0" style="stop-color:#4EEFD1"/>
		<stop  offset="1" style="stop-color:#00C9FF"/>
	</linearGradient>
	<path class="st5" d="M524.5,88.1c-0.7-1.8-1.5-4-2.3-6.4c-0.8-2.5-1.6-5.2-2.4-8.1l-2.5-9.2l-2.3,9.3c-0.7,2.9-1.5,5.7-2.3,8.2
		c-0.8,2.5-1.6,4.7-2.3,6.6l-13.7,38.7h41.7L524.5,88.1L524.5,88.1z M503.8,122L515,90.1c0.8-1.9,1.6-4.2,2.4-6.8v-0.1l0,0
		c0.8,2.5,1.6,4.8,2.4,6.7l11.4,32.1C531.3,122,503.8,122,503.8,122z"/>
	
		<linearGradient id="SVGID_7_" gradientUnits="userSpaceOnUse" x1="456.25" y1="111.45" x2="578.75" y2="111.45" gradientTransform="matrix(1 0 0 -1 0 222)">
		<stop  offset="0" style="stop-color:#4EEFD1"/>
		<stop  offset="1" style="stop-color:#00C9FF"/>
	</linearGradient>
	<path class="st6" d="M503.5,50l-47.2,121.1h22.4c2.6,0,4.8-0.7,6.6-2.2c1.7-1.4,2.9-3,3.6-4.8l7.3-20.5H539l7.3,20.5v0.1
		c0.8,2,2.1,3.6,3.7,4.8c1.7,1.3,4,2,6.6,2h22.2L531.5,50H503.5z M556.5,166.1c-1.5,0-2.7-0.3-3.6-1c-0.9-0.7-1.6-1.6-2.1-2.7
		l-8.4-23.8h-49.9l-8.4,23.8c-0.3,0.9-1,1.7-2,2.5c-0.9,0.7-2.1,1.1-3.5,1.1h-15.1L507,55H528l43.3,111.1H556.5z"/>
	
		<linearGradient id="SVGID_8_" gradientUnits="userSpaceOnUse" x1="583.05" y1="111.45" x2="687.55" y2="111.45" gradientTransform="matrix(1 0 0 -1 0 222)">
		<stop  offset="0" style="stop-color:#4EEFD1"/>
		<stop  offset="1" style="stop-color:#00C9FF"/>
	</linearGradient>
	<path class="st7" d="M658.4,99.3h-46.1V50h-29.2v121.1h29.2v-50h46.1v50h29.2V50h-29.2V99.3z M663.4,55h19.2v111.1h-19.2v-50h-56.1
		v50h-19.2V55h19.2v49.3h56.1V55z"/>
	
		<linearGradient id="SVGID_9_" gradientUnits="userSpaceOnUse" x1="706.75" y1="111.45" x2="811.25" y2="111.45" gradientTransform="matrix(1 0 0 -1 0 222)">
		<stop  offset="0" style="stop-color:#4EEFD1"/>
		<stop  offset="1" style="stop-color:#00C9FF"/>
	</linearGradient>
	<path class="st8" d="M782,99.3H736V50h-29.2v121.1H736v-50H782v50h29.2V50H782V99.3z M787,55h19.2v111.1H787v-50H731v50h-19.2V55
		H731v49.3H787V55z"/>
	
		<linearGradient id="SVGID_10_" gradientUnits="userSpaceOnUse" x1="854.25" y1="135.1" x2="896.8496" y2="135.1" gradientTransform="matrix(1 0 0 -1 0 222)">
		<stop  offset="0" style="stop-color:#4EEFD1"/>
		<stop  offset="1" style="stop-color:#00C9FF"/>
	</linearGradient>
	<path class="st9" d="M866,69.8c-2.9,1-5.2,2.3-6.9,4c-1.8,1.7-3,3.8-3.8,6.1c-0.7,2.2-1,4.5-1,6.8c0,2.6,0.3,5.1,1,7.3
		c0.7,2.4,2,4.5,3.8,6.2s4.1,3,7,3.9c2.7,0.8,6.2,1.3,10.2,1.3H897v-37h-20.6C872.2,68.4,868.7,68.9,866,69.8z M891.9,100.3h-15.7
		c-3.5,0-6.4-0.4-8.7-1c-2.1-0.7-3.8-1.6-5-2.7s-2-2.4-2.4-4c-0.5-1.7-0.8-3.7-0.8-5.8c0-1.9,0.3-3.7,0.8-5.3c0.5-1.5,1.3-2.9,2.5-4
		c1.2-1.2,2.9-2.1,5-2.9c2.2-0.8,5.2-1.1,8.7-1.1h15.6L891.9,100.3L891.9,100.3z"/>
	
		<linearGradient id="SVGID_11_" gradientUnits="userSpaceOnUse" x1="814.85" y1="111.45" x2="920.8393" y2="111.45" gradientTransform="matrix(1 0 0 -1 0 222)">
		<stop  offset="0" style="stop-color:#4EEFD1"/>
		<stop  offset="1" style="stop-color:#00C9FF"/>
	</linearGradient>
	<path class="st10" d="M876.3,50c-7.1,0-13.5,0.9-19.1,2.7s-10.5,4.4-14.4,7.6c-4,3.3-7,7.3-9.1,11.8s-3.2,9.5-3.2,14.8
		c0,3.8,0.5,7.4,1.6,10.7c1.1,3.4,2.7,6.5,4.9,9.3s5,5.3,8.3,7.4c1.8,1.2,3.9,2.2,6.1,3.1c-1,0.7-1.9,1.4-2.7,2.1
		c-2.2,2-4.3,4.5-6,7.4L814.8,171h22.7c4,0,7.4-0.9,10.2-2.6c2.8-1.7,5.1-4,6.8-6.8l18.6-31.1c1.6-2.6,3.2-4.4,4.8-5.3
		c1.7-0.9,3.4-1.4,5.4-1.5h8.6v47.4h29V50H876.3z M915.9,166.1h-19v-47.4h-13.6h-0.1c-2.7,0.1-5.3,0.8-7.6,2.2
		c-2.4,1.4-4.6,3.7-6.6,7.1l-18.6,31.1c-1.3,2.2-2.9,3.8-5.1,5.1c-2,1.2-4.6,1.8-7.7,1.8H824l23-36.4c1.5-2.5,3.2-4.6,5.1-6.3
		c1.8-1.6,4-3,6.5-4.1l6.5-2.8l-6.8-1.9c-3.9-1.1-7.3-2.6-10.2-4.4c-2.8-1.8-5.2-3.9-7-6.3c-1.8-2.3-3.2-5-4.1-7.8
		c-0.9-2.9-1.4-6-1.4-9.2c0-4.6,0.9-8.8,2.7-12.7c1.8-3.9,4.4-7.2,7.8-10c3.4-2.8,7.7-5.1,12.7-6.7c5.1-1.6,11-2.4,17.6-2.4H916
		v111.1H915.9z"/>
</g>
</svg>
