<?xml version="1.0" encoding="utf-8"?>
<!-- Generator: Adobe Illustrator 24.2.1, SVG Export Plug-In . SVG Version: 6.00 Build 0)  -->
<svg version="1.1" id="Layer_1" xmlns="http://www.w3.org/2000/svg" xmlns:xlink="http://www.w3.org/1999/xlink" x="0px" y="0px"
	 viewBox="0 0 950 221" style="enable-background:new 0 0 950 221;" xml:space="preserve">
<style type="text/css">
	.st0{fill:url(#SVGID_1_);}
	.st1{fill:url(#SVGID_2_);}
	.st2{fill:url(#SVGID_3_);}
	.st3{fill:url(#SVGID_4_);}
	.st4{fill:url(#SVGID_5_);}
	.st5{fill:url(#SVGID_6_);}
	.st6{fill:url(#SVGID_7_);}
	.st7{fill:url(#SVGID_8_);}
</style>
<g>
	
		<linearGradient id="SVGID_1_" gradientUnits="userSpaceOnUse" x1="7.8427" y1="110.93" x2="922.6119" y2="119.2377" gradientTransform="matrix(1 0 0 -1 0 222)">
		<stop  offset="0" style="stop-color:#4EEFD1"/>
		<stop  offset="1" style="stop-color:#00C9FF"/>
	</linearGradient>
	<path class="st0" d="M113.3,116.2c-1.6-2.2-3.6-4.2-5.8-6c-1.2-0.9-2.4-1.8-3.7-2.7c3.6-2.8,6.4-6.1,8.3-9.8
		c2.4-4.8,3.7-10.1,3.7-15.7c0-5-1.1-9.6-3.3-13.8c-2.2-4.1-5.3-7.7-9.3-10.7c-4-2.9-8.8-5.1-14.3-6.7c-5.5-1.6-11.7-2.4-18.5-2.4
		c-8,0-15.5,1.2-22.3,3.4c-6.9,2.3-12.8,5.5-17.6,9.5l-1.5,1.3l7.7,14.3l0.1,0.1c1,1.6,2,2.7,3.2,3.6c1.3,0.9,2.9,1.4,4.9,1.4
		c1.7,0,3.5-0.5,5.3-1.4c1.5-0.8,3.3-1.6,5.2-2.6c1.9-0.9,4.1-1.7,6.5-2.5c2.3-0.7,5.2-1.1,8.4-1.1c5.4,0,9.4,0.9,12,2.8
		c2.3,1.7,3.4,3.8,3.4,6.7c0,3.5-1.3,6-3.8,7.8c-2.8,2-7.4,2.9-13.5,2.9H50.9l0.1,26h19.5c2.8-0.1,5.3,0.2,7.6,0.7
		c2.2,0.5,4.1,1.3,5.6,2.3c1.5,1,2.6,2.2,3.4,3.6c0.8,1.4,1.2,3,1.2,4.9c0,2.6-0.4,4.8-1.1,6.5c-0.7,1.6-1.7,2.9-3,4
		c-1.3,1-3,1.8-5,2.3c-2.2,0.5-4.7,0.8-7.4,0.8c-3.9,0-7.2-0.5-10-1.4c-2.9-1-5.4-2-7.6-3.2c-2.2-1.2-4.2-2.3-6-3.3
		c-3.8-2.2-7.8-2.5-11-0.6c-1.3,0.8-2.4,1.8-3.3,3L24.6,155l1.5,1.4c2.6,2.4,5.7,4.6,9.1,6.6c3.4,1.9,7.1,3.6,10.9,5
		c3.9,1.4,7.9,2.5,12.1,3.3c4.2,0.8,8.4,1.2,12.5,1.2c7.4,0,14.2-1.1,20-3.1c5.9-2.1,10.9-5,15-8.7c4.1-3.7,7.3-8.1,9.4-13.1
		c2.1-5,3.2-10.4,3.2-16.1c0-2.9-0.5-5.6-1.4-8.2C116.2,120.8,114.9,118.4,113.3,116.2z"/>
	
		<linearGradient id="SVGID_2_" gradientUnits="userSpaceOnUse" x1="7.8541" y1="109.6724" x2="922.6234" y2="117.9801" gradientTransform="matrix(1 0 0 -1 0 222)">
		<stop  offset="0" style="stop-color:#4EEFD1"/>
		<stop  offset="1" style="stop-color:#00C9FF"/>
	</linearGradient>
	<path class="st1" d="M239.7,49.9c-1.1,0.1-2.2,0.3-3.1,0.6c-1,0.4-1.9,1-2.8,1.8c-0.8,0.7-1.4,1.7-2.1,3l-29.9,58.8
		c-1.1,2.1-2.3,4.3-3.3,6.6c-0.2,0.4-0.4,0.9-0.6,1.3c-0.2-0.4-0.4-0.8-0.5-1.2l0,0c-1-2.2-2.1-4.4-3.1-6.4l-30-59.2
		c-0.7-1.3-1.3-2.2-2.1-3c-0.8-0.8-1.7-1.4-2.8-1.8c-0.9-0.4-2-0.6-3.1-0.6c-0.9-0.1-2-0.1-3.2-0.1h-23.1v121.6h28.8v-68.7
		l25.7,49.6c1.2,2.3,2.8,4,4.8,5.3c2,1.2,4.3,1.8,6.8,1.8h3.7c2.5,0,4.8-0.6,6.8-1.8c2-1.2,3.7-3,4.8-5.3l25.7-49.8v68.9h28.8V49.8
		H243C241.8,49.8,240.7,49.8,239.7,49.9z"/>
	
		<linearGradient id="SVGID_3_" gradientUnits="userSpaceOnUse" x1="7.867" y1="108.2527" x2="922.6362" y2="116.5604" gradientTransform="matrix(1 0 0 -1 0 222)">
		<stop  offset="0" style="stop-color:#4EEFD1"/>
		<stop  offset="1" style="stop-color:#00C9FF"/>
	</linearGradient>
	<path class="st2" d="M315.9,49.8l-47.1,121.6h24.8c2.8,0,5.2-0.8,7.2-2.3c1.9-1.5,3.2-3.2,3.9-5.1l6.4-18.7h40.7l6.3,18.6l0.1,0.2
		c0.9,2.1,2.3,3.8,4.1,5.2c1.9,1.4,4.3,2.1,7.2,2.1H394L347,49.8H315.9z M331.1,86.1c0.1-0.3,0.2-0.6,0.3-0.9
		c0.1,0.3,0.2,0.6,0.3,0.8c0.9,2.7,1.8,5.2,2.6,7.2l9.6,28.6H319l9.6-28.4C329.4,91.4,330.3,88.9,331.1,86.1z"/>
	
		<linearGradient id="SVGID_4_" gradientUnits="userSpaceOnUse" x1="7.8717" y1="107.7268" x2="922.6411" y2="116.0345" gradientTransform="matrix(1 0 0 -1 0 222)">
		<stop  offset="0" style="stop-color:#4EEFD1"/>
		<stop  offset="1" style="stop-color:#00C9FF"/>
	</linearGradient>
	<polygon class="st3" points="475.2,49.8 396.8,49.8 396.8,171.4 429,171.4 429,74.9 475.2,74.9 	"/>
	
		<linearGradient id="SVGID_5_" gradientUnits="userSpaceOnUse" x1="7.8824" y1="106.5563" x2="922.6516" y2="114.864" gradientTransform="matrix(1 0 0 -1 0 222)">
		<stop  offset="0" style="stop-color:#4EEFD1"/>
		<stop  offset="1" style="stop-color:#00C9FF"/>
	</linearGradient>
	<path class="st4" d="M502.7,49.8l-47.1,121.6h24.8c2.8,0,5.2-0.8,7.2-2.3c1.9-1.5,3.2-3.2,3.9-5.1l6.3-18.7h40.7l6.3,18.6l0.1,0.2
		c0.9,2.1,2.3,3.8,4.1,5.2c1.9,1.4,4.3,2.1,7.2,2.1h24.6l-47-121.6H502.7z M517.9,86.1c0.1-0.3,0.2-0.6,0.3-0.9
		c0.1,0.3,0.2,0.6,0.3,0.8c0.9,2.7,1.8,5.2,2.6,7.2l9.6,28.6h-24.9l9.6-28.4C516.2,91.4,517.1,88.9,517.9,86.1z"/>
	
		<linearGradient id="SVGID_6_" gradientUnits="userSpaceOnUse" x1="7.8902" y1="105.6919" x2="922.6595" y2="113.9996" gradientTransform="matrix(1 0 0 -1 0 222)">
		<stop  offset="0" style="stop-color:#4EEFD1"/>
		<stop  offset="1" style="stop-color:#00C9FF"/>
	</linearGradient>
	<polygon class="st5" points="658.1,98.5 615.8,98.5 615.8,49.8 583.6,49.8 583.6,171.4 615.8,171.4 615.8,122.1 658.1,122.1 
		658.1,171.4 690.3,171.4 690.3,49.8 658.1,49.8 	"/>
	
		<linearGradient id="SVGID_7_" gradientUnits="userSpaceOnUse" x1="7.9005" y1="104.563" x2="922.6697" y2="112.8707" gradientTransform="matrix(1 0 0 -1 0 222)">
		<stop  offset="0" style="stop-color:#4EEFD1"/>
		<stop  offset="1" style="stop-color:#00C9FF"/>
	</linearGradient>
	<polygon class="st6" points="782.5,98.5 740.1,98.5 740.1,49.8 707.9,49.8 707.9,171.4 740.1,171.4 740.1,122.1 782.5,122.1 
		782.5,171.4 814.7,171.4 814.7,49.8 782.5,49.8 	"/>
	
		<linearGradient id="SVGID_8_" gradientUnits="userSpaceOnUse" x1="7.9121" y1="103.2834" x2="922.6813" y2="111.5911" gradientTransform="matrix(1 0 0 -1 0 222)">
		<stop  offset="0" style="stop-color:#4EEFD1"/>
		<stop  offset="1" style="stop-color:#00C9FF"/>
	</linearGradient>
	<path class="st7" d="M879.4,49.8c-7.2,0-13.8,0.9-19.5,2.8c-5.8,1.9-10.7,4.5-14.8,7.8c-4.1,3.3-7.2,7.4-9.3,11.9
		c-2.2,4.6-3.2,9.6-3.2,15c0,3.6,0.5,7.2,1.5,10.5c1,3.4,2.6,6.5,4.7,9.3c2.1,2.8,4.8,5.3,8,7.4c1.8,1.2,3.8,2.3,5.9,3.2
		c-1.1,0.8-2.2,1.6-3.2,2.5c-2.3,2.1-4.4,4.7-6.3,7.6l-26.1,43.5H842c4.3,0,8.1-0.9,11.3-2.8c3.1-1.8,5.7-4.4,7.6-7.5l16.3-29.7
		c1.5-2.7,3.1-4.5,4.7-5.4c1.7-0.9,3.5-1.4,5.6-1.4h5.9v46.7h32V49.8H879.4z M871.3,76.2c2-0.7,4.7-1.1,8-1.1h14v24.2h-14
		c-3.3,0-6.1-0.3-8.1-1c-1.9-0.6-3.3-1.4-4.3-2.4c-1-1-1.7-2.2-2-3.6c-0.4-1.6-0.6-3.4-0.6-5.3c0-1.6,0.2-3.2,0.6-4.7
		c0.4-1.3,1-2.5,2.1-3.6C868,77.7,869.5,76.9,871.3,76.2z"/>
</g>
</svg>
