<?xml version="1.0" encoding="utf-8"?>
<!-- Generator: Adobe Illustrator 24.2.1, SVG Export Plug-In . SVG Version: 6.00 Build 0)  -->
<svg version="1.1" id="Layer_1" xmlns="http://www.w3.org/2000/svg" xmlns:xlink="http://www.w3.org/1999/xlink" x="0px" y="0px"
	 viewBox="0 0 753 221" style="enable-background:new 0 0 753 221;" xml:space="preserve">
<style type="text/css">
	.st0{fill:url(#SVGID_1_);}
	.st1{fill:url(#SVGID_2_);}
	.st2{fill:url(#SVGID_3_);}
	.st3{fill:url(#SVGID_4_);}
	.st4{fill:url(#SVGID_5_);}
	.st5{fill:url(#SVGID_6_);}
	.st6{fill:url(#SVGID_7_);}
</style>
<g>
	
		<linearGradient id="SVGID_1_" gradientUnits="userSpaceOnUse" x1="15.9" y1="111.35" x2="123.7" y2="111.35" gradientTransform="matrix(1 0 0 -1 0 222)">
		<stop  offset="0" style="stop-color:#4EEFD1"/>
		<stop  offset="1" style="stop-color:#00C9FF"/>
	</linearGradient>
	<path class="st0" d="M86,109.7c-1.2-1.1-2.6-2-4.1-2.8c0.5-0.3,0.9-0.6,1.4-1c2-1.5,3.8-3.5,5.3-5.8l32.6-50H96
		c-2.8,0-5.2,0.8-7.2,2.2c-1.9,1.4-3.5,3.1-4.7,5.2L60.6,93.9c-1.1,1.6-2.2,2.7-3.3,3.3c-1.2,0.6-2.7,0.9-4.4,0.9h-8v-48h-29v121.1
		h29v-50.3H55c1.2,0,2.2,0.1,3.1,0.2c0.7,0.1,1.4,0.3,2,0.6c0.6,0.3,1.2,0.8,1.7,1.3c0.6,0.6,1.1,1.4,1.7,2.3L85.6,163
		c1.4,2.5,3.1,4.5,4.8,5.8c1.9,1.5,4.3,2.2,7,2.2h26.3l-30.6-52.2C91,115.1,88.5,112,86,109.7z M97.5,166.2c-1.6,0-2.9-0.4-4-1.2
		c-1.2-0.9-2.4-2.4-3.5-4.4l-22.1-37.7c-0.7-1.3-1.6-2.4-2.4-3.3c-0.9-0.9-1.9-1.7-2.9-2.3c-1.1-0.6-2.3-1-3.6-1.2
		c-1.2-0.2-2.5-0.3-3.9-0.3H39.9v50.3h-19v-111h19V103h13c2.5,0,4.6-0.5,6.5-1.4c2-0.9,3.7-2.6,5.3-5.1l23.5-36.4
		c0.9-1.6,2.1-2.9,3.4-3.8c1.2-0.9,2.6-1.3,4.3-1.3h15.9L84.2,97.3c-1.2,1.8-2.6,3.3-4.1,4.5c-1.6,1.2-3.4,2.2-5.4,2.9l-7.4,2.7
		l7.6,2.1c3,0.8,5.5,2.1,7.6,3.9c2.1,1.9,4.2,4.5,6.2,8l26.2,44.7L97.5,166.2L97.5,166.2z"/>
	
		<linearGradient id="SVGID_2_" gradientUnits="userSpaceOnUse" x1="124.7" y1="110.8" x2="238.1" y2="110.8" gradientTransform="matrix(1 0 0 -1 0 222)">
		<stop  offset="0" style="stop-color:#4EEFD1"/>
		<stop  offset="1" style="stop-color:#00C9FF"/>
	</linearGradient>
	<path class="st1" d="M157.3,52.5c-0.4,15.4-1.1,28.6-2.1,39.3s-2.1,19.8-3.5,27c-1.3,7.1-2.8,12.7-4.4,16.7
		c-1.6,3.9-3.2,6.8-4.8,8.7c-1.5,1.7-2.9,2.8-4.3,3.2c-1.6,0.5-3.1,0.7-4.6,0.7h-8.9v17.3c0,1.4,0.6,4.1,4.4,5.6
		c2.2,0.9,5.5,1.3,10,1.3c3.9,0,7.7-0.5,11.3-1.4c3.7-1,7.3-2.9,10.5-5.7c3.2-2.7,6.1-6.5,8.7-11.3c2.6-4.7,4.9-10.9,6.9-18.4
		c2-7.4,3.7-16.5,5.1-27.1c1.3-9.9,2.4-21.8,3.2-35.2h24.1v97.9h29.2v-121h-80.7L157.3,52.5z M162.2,55.1h70.9v111.1h-19.2V68.3
		h-33.8l-0.1,2.4c-0.8,14.3-1.9,26.8-3.3,37.2c-1.4,10.4-3,19.2-4.9,26.4c-1.9,7.1-4,12.9-6.4,17.3c-2.3,4.3-4.9,7.6-7.6,9.9
		c-2.7,2.3-5.5,3.8-8.5,4.6c-3.2,0.8-6.5,1.3-10,1.3c-4.8,0-7.1-0.5-8.2-0.9c-0.5-0.2-1.2-0.6-1.2-1v-12.3h3.9c1.9,0,4-0.3,6-0.9
		c2.3-0.7,4.5-2.3,6.6-4.8c2-2.3,3.8-5.6,5.6-10.1c1.7-4.3,3.3-10.2,4.7-17.6c1.4-7.3,2.6-16.5,3.6-27.4
		C161.1,82,161.8,69.5,162.2,55.1z"/>
	
		<linearGradient id="SVGID_3_" gradientUnits="userSpaceOnUse" x1="257.4" y1="111.35" x2="286.5601" y2="111.35" gradientTransform="matrix(1 0 0 -1 0 222)">
		<stop  offset="0" style="stop-color:#4EEFD1"/>
		<stop  offset="1" style="stop-color:#00C9FF"/>
	</linearGradient>
	<path class="st2" d="M257.4,171.2h29.2V50.1h-29.2V171.2z M262.4,55.1h19.2v111.1h-19.2V55.1z"/>
	
		<linearGradient id="SVGID_4_" gradientUnits="userSpaceOnUse" x1="299.1999" y1="111.55" x2="403.4999" y2="111.55" gradientTransform="matrix(1 0 0 -1 0 222)">
		<stop  offset="0" style="stop-color:#4EEFD1"/>
		<stop  offset="1" style="stop-color:#00C9FF"/>
	</linearGradient>
	<path class="st3" d="M387.4,137.6c-1.1,0-2.2,0.2-3.2,0.7c-0.8,0.4-1.6,0.9-2.3,1.5l-0.1,0.1c-1.6,1.4-3.2,2.6-4.7,3.6
		c-1.5,0.9-3.2,1.7-4.9,2.3c-1.7,0.6-3.6,1-5.7,1.2c-2.1,0.3-4.5,0.4-7.1,0.4c-3.8,0-7.4-0.6-10.7-1.9c-3.3-1.3-6.3-3.1-9-5.5
		c-2.6-2.4-4.9-5.5-6.7-9.1c-1.5-2.9-2.6-6.1-3.3-9.7h51.2V98.7h-51c0.7-3.3,1.8-6.3,3.2-8.9c1.7-3.4,3.9-6.3,6.5-8.6
		c2.5-2.3,5.5-4.1,8.7-5.3c3.3-1.2,7-1.8,10.9-1.8c4.1,0,7.5,0.4,10.1,1.2c2.7,0.8,4.9,1.8,6.6,2.8c1.8,1.1,3.4,2.1,4.6,2.9
		c1.7,1.2,3.5,1.8,5.3,1.8s3.3-0.4,4.5-1.3c1-0.7,1.8-1.5,2.4-2.4l9.3-12.8l-1.5-1.5c-2.3-2.3-5-4.5-7.9-6.5s-6.2-3.7-9.6-5.1
		c-3.4-1.4-7.2-2.5-11.1-3.3c-4-0.8-8.2-1.2-12.6-1.2c-5.9,0-11.5,0.7-16.7,2c-5.2,1.4-10.1,3.4-14.6,5.9c-4.4,2.6-8.5,5.8-12,9.4
		c-3.5,3.7-6.6,7.8-9.1,12.4c-2.5,4.6-4.4,9.6-5.7,15c-1.3,5.4-2,11.1-2,17c0,8.8,1.4,17.1,4.1,24.6s6.7,14.1,11.7,19.6
		c5.1,5.5,11.3,9.9,18.5,13s15.4,4.6,24.4,4.6c9.9,0,18.6-1.6,25.9-4.9c7.3-3.2,13.5-8.1,18.4-14.3l1.3-1.7l-11-11.7
		C391.2,138.4,389.4,137.6,387.4,137.6z M381.8,163c-6.6,2.9-14.6,4.4-23.8,4.4c-8.3,0-15.9-1.4-22.5-4.2s-12.2-6.8-16.8-11.8
		c-4.6-5-8.2-11.1-10.7-18s-3.8-14.7-3.8-22.9c0-5.5,0.6-10.9,1.8-15.9c1.2-5,3-9.6,5.2-13.7c2.3-4.2,5.1-8,8.3-11.3
		c3.2-3.3,6.9-6.2,10.9-8.6s8.5-4.2,13.3-5.4s10-1.9,15.5-1.9c4.1,0,8,0.4,11.6,1.1c3.6,0.7,7.1,1.7,10.2,3s6.1,2.8,8.7,4.6
		c2,1.4,3.9,2.9,5.6,4.4l-6.8,9.3c-0.3,0.5-0.7,0.9-1.2,1.2c-0.3,0.2-0.9,0.3-1.6,0.3c-0.8,0-1.6-0.3-2.5-0.9c-1.4-0.9-3-2-5-3.1
		c-2-1.2-4.6-2.3-7.6-3.3c-3.1-1-7-1.5-11.6-1.5c-4.5,0-8.7,0.7-12.6,2.1c-3.9,1.4-7.4,3.5-10.4,6.3c-3,2.7-5.5,6.1-7.5,10
		c-2,3.9-3.4,8.4-4.2,13.3l-0.5,2.9h51.9v12.5h-52l0.4,2.8c0.7,5.3,2.2,10,4.2,14.1c2.1,4.1,4.7,7.7,7.8,10.5
		c3.1,2.8,6.7,5,10.6,6.5s8.1,2.2,12.5,2.2c2.8,0,5.4-0.1,7.7-0.4c2.4-0.3,4.6-0.8,6.7-1.5s4-1.6,5.8-2.7c1.8-1.1,3.6-2.5,5.4-4.1
		c0.4-0.3,0.9-0.6,1.3-0.9c0.3-0.1,0.6-0.2,1-0.2c0.6,0,1.1,0.2,1.5,0.6l8,8.6C392.8,156.7,387.7,160.4,381.8,163z"/>
	
		<linearGradient id="SVGID_5_" gradientUnits="userSpaceOnUse" x1="412.2" y1="111.35" x2="516.7" y2="111.35" gradientTransform="matrix(1 0 0 -1 0 222)">
		<stop  offset="0" style="stop-color:#4EEFD1"/>
		<stop  offset="1" style="stop-color:#00C9FF"/>
	</linearGradient>
	<path class="st4" d="M487.5,99.4h-46.1V50.1h-29.2v121.1h29.2v-50h46.1v50h29.2V50.1h-29.2L487.5,99.4L487.5,99.4z M492.5,55.1
		h19.2v111.1h-19.2v-50h-56.1v50h-19.2V55.1h19.2v49.3h56.1V55.1z"/>
	
		<linearGradient id="SVGID_6_" gradientUnits="userSpaceOnUse" x1="526.3" y1="111.35" x2="623.2" y2="111.35" gradientTransform="matrix(1 0 0 -1 0 222)">
		<stop  offset="0" style="stop-color:#4EEFD1"/>
		<stop  offset="1" style="stop-color:#00C9FF"/>
	</linearGradient>
	<path class="st5" d="M526.3,74.5h33.9v96.7h29.1V74.5h33.9V50.1h-96.9V74.5z M531.3,55.1h86.9v14.4h-33.9v96.7h-19.1V69.5h-33.9
		V55.1z"/>
	
		<linearGradient id="SVGID_7_" gradientUnits="userSpaceOnUse" x1="632.6" y1="111.35" x2="737.1" y2="111.35" gradientTransform="matrix(1 0 0 -1 0 222)">
		<stop  offset="0" style="stop-color:#4EEFD1"/>
		<stop  offset="1" style="stop-color:#00C9FF"/>
	</linearGradient>
	<path class="st6" d="M716.5,50.1c-1.5,0-2.9,0.3-4.3,0.8c-1.2,0.5-2.4,1.2-3.5,2c-1,0.8-2,1.7-2.8,2.7s-1.5,1.9-2.1,2.9l-40.3,65.1
		c-0.6,1-1.2,2.1-1.8,3.2c0.1-1.8,0.1-3.5,0.1-5.1V50.1h-29.2v121.1h20.6c1.5,0,2.9-0.3,4.3-0.8c1.3-0.5,2.4-1.2,3.5-2.1
		c1-0.8,1.9-1.7,2.7-2.6c0.8-1,1.6-2,2.2-3l40.3-65.1c0.6-1,1.2-2.1,1.8-3.2c-0.1,1.8-0.1,3.5-0.1,5.1v71.7h29.2V50.1H716.5z
		 M732.1,166.2h-19.2V99.5c0-2.8,0.1-5.8,0.2-8.9c0.2-3.1,0.5-6.4,0.9-9.9l-4.8-1.2c-1.1,3.1-2.4,5.9-3.7,8.6
		c-1.3,2.6-2.6,5-3.7,6.9l-40.3,65.1c-0.5,0.8-1,1.5-1.6,2.3c-0.7,0.7-1.4,1.4-2.1,2.1c-0.7,0.6-1.4,1-2.2,1.3
		c-0.7,0.3-1.5,0.5-2.4,0.5h-15.6V55.1h19.2v66.7c0,2.8-0.1,5.8-0.2,9c-0.2,3.1-0.5,6.4-0.9,9.8l4.8,1.2c1.1-3,2.3-5.9,3.6-8.5
		c1.3-2.7,2.6-5,3.8-6.9l40.2-65.2c0.5-0.7,1-1.5,1.7-2.3c0.6-0.7,1.3-1.4,2.1-2c0.7-0.5,1.5-1,2.3-1.3c0.7-0.3,1.5-0.5,2.4-0.5
		h15.5V166.2z"/>
</g>
</svg>
