<?xml version="1.0" encoding="utf-8"?>
<!-- Generator: Adobe Illustrator 24.2.1, SVG Export Plug-In . SVG Version: 6.00 Build 0)  -->
<svg version="1.1" id="Layer_1" xmlns="http://www.w3.org/2000/svg" xmlns:xlink="http://www.w3.org/1999/xlink" x="0px" y="0px"
	 viewBox="0 0 753 221" style="enable-background:new 0 0 753 221;" xml:space="preserve">
<style type="text/css">
	.st0{fill:url(#SVGID_1_);}
	.st1{fill:url(#SVGID_2_);}
	.st2{fill:url(#SVGID_3_);}
	.st3{fill:url(#SVGID_4_);}
	.st4{fill:url(#SVGID_5_);}
	.st5{fill:url(#SVGID_6_);}
</style>
<g>
	
		<linearGradient id="SVGID_1_" gradientUnits="userSpaceOnUse" x1="6.6044" y1="110.3388" x2="747.8351" y2="115.8772" gradientTransform="matrix(1 0 0 -1 0 222)">
		<stop  offset="0" style="stop-color:#4EEFD1"/>
		<stop  offset="1" style="stop-color:#00C9FF"/>
	</linearGradient>
	<path class="st0" d="M152.6,52.2c-0.3,11.6-0.7,21.9-1.4,30.8c-0.6,8.9-1.4,16.7-2.3,23.3c-0.9,6.6-1.8,12.2-2.9,16.8
		c-1.1,4.6-2.2,8.4-3.3,11.4c-1.1,2.9-2.3,5.2-3.4,6.8c-1.1,1.5-2.3,2.7-3.4,3.4c-1,0.7-2,1.1-2.9,1.3c-1.1,0.2-2.2,0.3-3.3,0.3
		h-9.2v14.3l-22.3-41.1c-2.3-4.1-4.9-7.4-7.6-9.8c-1.4-1.2-3-2.3-4.7-3.2c0.5-0.4,1.1-0.7,1.6-1.1c2.1-1.6,3.9-3.6,5.4-6l30.8-49.7
		H96c-3,0-5.7,0.8-7.9,2.4c-2,1.5-3.8,3.4-5.1,5.7L61.9,92.9c-1,1.6-2,2.6-3.1,3.2c-1.1,0.6-2.5,0.9-4.1,0.9h-7.4V49.7h-32v121.6h32
		v-49.6H57c2.1,0,3.8,0.3,5,0.9c1.1,0.5,2.2,1.7,3.2,3.6l19.4,36.5c1.5,2.7,3.3,4.8,5.2,6.3c2.1,1.6,4.6,2.4,7.6,2.4h28
		c2.3,0.9,5.8,1.3,10.5,1.3c4,0,7.9-0.5,11.6-1.4c3.8-0.9,7.5-2.8,10.8-5.5c3.2-2.7,6.3-6.4,9-11.1c2.7-4.6,5.1-10.8,7.1-18.2
		c2-7.3,3.8-16.3,5.3-26.8c1.4-9.8,2.5-21.5,3.3-34.8h20.9v96.5H236V49.7h-83.4L152.6,52.2z"/>
	
		<linearGradient id="SVGID_2_" gradientUnits="userSpaceOnUse" x1="6.6103" y1="109.5342" x2="747.8411" y2="115.0726" gradientTransform="matrix(1 0 0 -1 0 222)">
		<stop  offset="0" style="stop-color:#4EEFD1"/>
		<stop  offset="1" style="stop-color:#00C9FF"/>
	</linearGradient>
	<rect x="253.6" y="49.7" class="st1" width="32.2" height="121.6"/>
	
		<linearGradient id="SVGID_3_" gradientUnits="userSpaceOnUse" x1="6.6152" y1="108.8929" x2="747.846" y2="114.4314" gradientTransform="matrix(1 0 0 -1 0 222)">
		<stop  offset="0" style="stop-color:#4EEFD1"/>
		<stop  offset="1" style="stop-color:#00C9FF"/>
	</linearGradient>
	<path class="st2" d="M387.2,136.6c-2-0.8-4.2-0.7-6.2,0.2c-0.9,0.4-1.8,1-2.7,1.7c-1.5,1.3-2.9,2.4-4.3,3.3c-1.4,0.8-2.9,1.5-4.4,2
		c-1.6,0.5-3.4,0.9-5.2,1.1c-1.9,0.2-4.1,0.3-6.4,0.3c-3.4,0-6.6-0.6-9.6-1.7c-3-1.1-5.7-2.8-8.2-5c-2.4-2.2-4.5-4.9-6.2-8.2
		c-1.3-2.5-2.4-5.4-3.1-8.5h48.9V97.6H331c0.7-2.9,1.7-5.5,2.9-7.8c1.6-3.1,3.5-5.6,5.9-7.7c2.3-2.1,4.9-3.6,7.9-4.7
		c3-1.1,6.2-1.6,9.7-1.6c2.6,0,5,0.2,6.9,0.6c2,0.4,3.7,0.9,5.1,1.4c1.4,0.6,2.6,1.2,3.7,1.8c1.1,0.7,2.2,1.4,3.1,2
		c1,0.7,2,1.2,3,1.7c1.2,0.6,2.5,0.9,3.8,0.9c2,0,3.6-0.5,4.9-1.4c1-0.7,1.8-1.6,2.6-2.5l10.4-13.9l-1.5-1.5c-2.3-2.4-5-4.6-7.9-6.6
		c-3-2-6.2-3.8-9.8-5.2c-3.5-1.4-7.3-2.5-11.3-3.3s-8.3-1.2-12.9-1.2c-8.9,0-17.1,1.5-24.5,4.6c-7.4,3.1-13.9,7.4-19.3,12.9
		c-5.3,5.5-9.5,12.1-12.5,19.7c-2.9,7.5-4.4,15.9-4.4,24.9c0,8.8,1.4,17,4.1,24.6c2.7,7.6,6.7,14.2,11.8,19.7
		c5.1,5.5,11.4,10,18.7,13.1c7.3,3.1,15.6,4.7,24.8,4.7c10,0,18.7-1.6,26.1-4.9c7.4-3.3,13.7-8.2,18.6-14.6l1.3-1.7l-12.2-12.9
		C389.1,137.6,388.2,137,387.2,136.6z"/>
	
		<linearGradient id="SVGID_4_" gradientUnits="userSpaceOnUse" x1="6.6211" y1="108.0931" x2="747.8519" y2="113.6315" gradientTransform="matrix(1 0 0 -1 0 222)">
		<stop  offset="0" style="stop-color:#4EEFD1"/>
		<stop  offset="1" style="stop-color:#00C9FF"/>
	</linearGradient>
	<polygon class="st3" points="483.8,98.4 441.4,98.4 441.4,49.7 409.2,49.7 409.2,171.3 441.4,171.3 441.4,122 483.8,122 
		483.8,171.3 516,171.3 516,49.7 483.8,49.7 	"/>
	
		<linearGradient id="SVGID_5_" gradientUnits="userSpaceOnUse" x1="6.6264" y1="107.3872" x2="747.8571" y2="112.9257" gradientTransform="matrix(1 0 0 -1 0 222)">
		<stop  offset="0" style="stop-color:#4EEFD1"/>
		<stop  offset="1" style="stop-color:#00C9FF"/>
	</linearGradient>
	<polygon class="st4" points="524.6,76.2 557.4,76.2 557.4,171.3 589.5,171.3 589.5,76.2 622.3,76.2 622.3,49.7 524.6,49.7 	"/>
	
		<linearGradient id="SVGID_6_" gradientUnits="userSpaceOnUse" x1="6.6335" y1="106.4362" x2="747.8643" y2="111.9746" gradientTransform="matrix(1 0 0 -1 0 222)">
		<stop  offset="0" style="stop-color:#4EEFD1"/>
		<stop  offset="1" style="stop-color:#00C9FF"/>
	</linearGradient>
	<path class="st5" d="M714.8,49.7c-1.6,0-3.2,0.3-4.6,0.9c-1.4,0.6-2.7,1.3-3.8,2.2c-1.2,0.9-2.2,1.9-3.1,3
		c-0.9,1.1-1.7,2.1-2.4,3.2l-35.4,60.5c-0.8,1.2-1.6,2.6-2.4,4.1c0.1-2.1,0.1-4.2,0.1-6.2V49.7H631v121.6h22.9
		c1.6,0,3.2-0.3,4.6-0.9c1.4-0.6,2.7-1.3,3.8-2.2c1.1-0.9,2.2-1.9,3.1-3c0.9-1.1,1.7-2.1,2.4-3.3l35.4-60.5c0.8-1.2,1.5-2.6,2.4-4.1
		c-0.1,2.1-0.1,4.1-0.1,6.1v67.8h32.2V49.7H714.8z"/>
</g>
</svg>
