<?xml version="1.0" encoding="utf-8"?>
<!-- Generator: Adobe Illustrator 24.2.1, SVG Export Plug-In . SVG Version: 6.00 Build 0)  -->
<svg version="1.1" id="Layer_1" xmlns="http://www.w3.org/2000/svg" xmlns:xlink="http://www.w3.org/1999/xlink" x="0px" y="0px"
	 viewBox="0 0 950 221" style="enable-background:new 0 0 950 221;" xml:space="preserve">
<style type="text/css">
	.st0{fill:url(#SVGID_1_);}
	.st1{fill:url(#SVGID_2_);}
	.st2{fill:url(#SVGID_3_);}
	.st3{fill:url(#SVGID_4_);}
</style>
<g>
	
		<linearGradient id="SVGID_1_" gradientUnits="userSpaceOnUse" x1="310.6" y1="111.5" x2="402.5" y2="111.5" gradientTransform="matrix(1 0 0 -1 0 222)">
		<stop  offset="0" style="stop-color:#4EEFD1"/>
		<stop  offset="1" style="stop-color:#00C9FF"/>
	</linearGradient>
	<path class="st0" d="M401.1,123.4c-0.9-2.6-2.2-5.1-3.9-7.3c-1.6-2.2-3.7-4.3-6-6.1c-1.2-1-2.5-1.8-3.8-2.7
		c3.6-2.7,6.4-5.9,8.4-9.6c2.6-4.8,3.9-10.1,3.9-15.9c0-4.9-1.1-9.5-3.2-13.6c-2.1-4.1-5.2-7.6-9.1-10.5s-8.5-5.1-14-6.7
		c-5.4-1.6-11.4-2.3-18-2.3c-7.9,0-15.2,1.1-21.8,3.4c-6.6,2.3-12.4,5.5-17.1,9.5l-1.5,1.3l6.8,13.1l0.1,0.2c0.9,1.5,1.9,2.5,3,3.3
		c2.3,1.6,5.8,1.9,9.6-0.2c1.4-0.8,3.1-1.7,5.1-2.6c1.9-0.9,4.1-1.8,6.7-2.5c2.5-0.7,5.5-1.1,8.9-1.1c5.8,0,10.2,1,13,3.1
		c2.6,1.9,3.9,4.5,3.9,7.7c0,3.9-1.4,6.7-4.2,8.7c-3.1,2.1-7.7,3.2-13.9,3.2h-17.3l0.1,24H356c3,0,5.7,0.2,8.1,0.9
		c2.4,0.6,4.4,1.5,6,2.7c1.6,1.1,2.7,2.4,3.6,4.1c0.9,1.6,1.3,3.4,1.3,5.4c0,5.4-1.5,9.1-4.5,11.4c-3.2,2.4-7.9,3.7-13.9,3.7
		c-4.1,0-7.6-0.5-10.5-1.5c-3-1-5.6-2.1-7.7-3.3c-2.3-1.3-4.2-2.4-5.9-3.5c-3.8-2.4-7.5-2.6-10.5-0.8c-1.2,0.7-2.3,1.7-3.1,2.8
		l-8.3,13.2l1.5,1.4c2.6,2.4,5.6,4.6,8.9,6.6c3.3,1.9,6.9,3.6,10.6,5c3.7,1.4,7.7,2.5,11.8,3.2c4.1,0.8,8.3,1.2,12.4,1.2
		c7.3,0,13.9-1,19.6-3.1c5.8-2.1,10.7-4.9,14.7-8.5s7.1-7.9,9.2-12.9c2.1-4.9,3.2-10.2,3.2-15.8C402.5,128.9,402,126.1,401.1,123.4z
		 M394.7,145.7c-1.8,4.3-4.5,8-8,11.1c-3.5,3.2-7.9,5.7-13.1,7.5c-5.2,1.9-11.2,2.8-18,2.8c-3.8,0-7.7-0.4-11.5-1.1
		c-3.8-0.7-7.5-1.7-11-3s-6.8-2.8-9.8-4.6c-2.4-1.4-4.5-2.9-6.5-4.5l6-9.5c0.4-0.5,0.9-1,1.5-1.4c1.4-0.8,3.1-0.6,5.3,0.7
		c1.7,1.1,3.8,2.3,6.1,3.6c2.4,1.3,5.3,2.6,8.6,3.7c3.4,1.1,7.5,1.7,12.1,1.7c7.1,0,12.8-1.6,16.9-4.7c4.3-3.3,6.5-8.4,6.5-15.4
		c0-2.9-0.6-5.5-1.9-7.8c-1.2-2.3-2.9-4.2-5.1-5.8c-2.1-1.5-4.7-2.7-7.6-3.4c-2.9-0.7-6.1-1.1-9.4-1h-14l-0.1-14h12.4
		c7.2,0,12.8-1.4,16.7-4.1c4.2-2.9,6.4-7.2,6.4-12.8c0-4.9-2-8.9-5.9-11.8c-3.7-2.7-9.1-4.1-16-4.1c-3.9,0-7.4,0.4-10.3,1.3
		c-2.8,0.8-5.4,1.8-7.5,2.8c-2,1-3.8,1.9-5.3,2.7c-1.1,0.6-2,0.9-2.8,0.9c-0.7,0-1.2-0.1-1.6-0.4c-0.4-0.2-0.9-0.8-1.6-1.8l-4.9-9.4
		c4-3,8.7-5.5,14-7.3c6.1-2.1,12.8-3.1,20.1-3.1c6.1,0,11.7,0.7,16.6,2.1c4.8,1.4,9,3.4,12.4,5.9c3.3,2.5,5.9,5.4,7.6,8.8
		c1.8,3.4,2.6,7.2,2.6,11.3c0,4.9-1.1,9.4-3.3,13.5c-2.1,4-5.5,7.3-10,9.9l-4.1,2.3l4.2,2.1c2.4,1.2,4.6,2.6,6.6,4.2
		c2,1.6,3.7,3.3,5.1,5.2l0,0c1.4,1.8,2.4,3.9,3.2,6c0.8,2.1,1.1,4.4,1.1,6.8C397.5,136.8,396.6,141.4,394.7,145.7z"/>
	
		<linearGradient id="SVGID_2_" gradientUnits="userSpaceOnUse" x1="399.7" y1="111.45" x2="522.2" y2="111.45" gradientTransform="matrix(1 0 0 -1 0 222)">
		<stop  offset="0" style="stop-color:#4EEFD1"/>
		<stop  offset="1" style="stop-color:#00C9FF"/>
	</linearGradient>
	<path class="st1" d="M446.9,50l-47.2,121.1h22.4c2.6,0,4.8-0.7,6.6-2.2c1.7-1.4,2.9-3,3.6-4.8l7.3-20.5h42.8l7.3,20.5v0.1
		c0.8,2,2.1,3.6,3.7,4.8c1.7,1.3,4,2,6.6,2h22.2L474.9,50H446.9z M499.9,166.1c-1.5,0-2.7-0.3-3.6-1s-1.6-1.6-2.1-2.7l-8.4-23.8
		h-49.9l-8.4,23.8c-0.3,0.9-1,1.7-2,2.5c-0.9,0.7-2.1,1.1-3.5,1.1h-15l43.3-111h21.1l43.3,111.1H499.9z"/>
	
		<linearGradient id="SVGID_3_" gradientUnits="userSpaceOnUse" x1="440.0547" y1="126.3" x2="481.7547" y2="126.3" gradientTransform="matrix(1 0 0 -1 0 222)">
		<stop  offset="0" style="stop-color:#4EEFD1"/>
		<stop  offset="1" style="stop-color:#00C9FF"/>
	</linearGradient>
	<path class="st2" d="M468,88.1c-0.7-1.8-1.5-4-2.3-6.4c-0.8-2.5-1.6-5.2-2.4-8.1l-2.5-9.2l-2.3,9.3c-0.7,2.9-1.5,5.7-2.3,8.2
		c-0.8,2.5-1.6,4.7-2.3,6.6L440.1,127h41.7L468,88.1L468,88.1z M447.1,122l11.3-31.9c0.8-1.9,1.6-4.2,2.4-6.8v-0.1l0,0
		c0.8,2.6,1.6,4.8,2.4,6.7l11.5,32.1H447.1z"/>
	
		<linearGradient id="SVGID_4_" gradientUnits="userSpaceOnUse" x1="526" y1="110.9" x2="639.4" y2="110.9" gradientTransform="matrix(1 0 0 -1 0 222)">
		<stop  offset="0" style="stop-color:#4EEFD1"/>
		<stop  offset="1" style="stop-color:#00C9FF"/>
	</linearGradient>
	<path class="st3" d="M558.7,50l-0.1,2.4c-0.4,15.4-1.1,28.6-2.1,39.3s-2.2,19.8-3.5,27c-1.3,7.1-2.8,12.7-4.4,16.7
		c-1.6,3.9-3.2,6.8-4.8,8.7c-1.5,1.7-2.9,2.8-4.3,3.2c-1.6,0.5-3.1,0.7-4.6,0.7H526v17.3c0,1.4,0.6,4.1,4.4,5.6
		c2.2,0.9,5.5,1.3,10,1.3c3.9,0,7.7-0.5,11.3-1.4c3.7-1,7.3-2.9,10.5-5.7c3.2-2.7,6.1-6.5,8.7-11.3c2.6-4.7,4.9-10.9,6.9-18.4
		c2-7.4,3.7-16.5,5.1-27.1c1.3-9.9,2.4-21.8,3.2-35.2h24.1V171h29.2V50H558.7z M634.4,166.1h-19.2V68.2h-33.8l-0.1,2.4
		c-0.8,14.3-1.9,26.8-3.3,37.2c-1.4,10.4-3,19.2-4.9,26.4c-1.9,7.1-4,12.9-6.4,17.3c-2.3,4.3-4.9,7.6-7.6,9.9
		c-2.7,2.3-5.5,3.8-8.5,4.6c-3.2,0.8-6.5,1.3-10,1.3c-4.8,0-7.1-0.5-8.2-0.9c-0.5-0.2-1.2-0.6-1.2-1v-12.3h3.9c1.9,0,4-0.3,6-0.9
		c2.3-0.7,4.5-2.3,6.6-4.8c2-2.3,3.8-5.6,5.6-10.1c1.7-4.3,3.3-10.2,4.7-17.6c1.4-7.3,2.6-16.5,3.6-27.4c0.9-10.3,1.6-22.8,2.1-37.2
		h70.8v111H634.4z"/>
</g>
</svg>
