<?xml version="1.0" encoding="utf-8"?>
<!-- Generator: Adobe Illustrator 24.2.1, SVG Export Plug-In . SVG Version: 6.00 Build 0)  -->
<svg version="1.1" id="Layer_1" xmlns="http://www.w3.org/2000/svg" xmlns:xlink="http://www.w3.org/1999/xlink" x="0px" y="0px"
	 viewBox="0 0 950 221" style="enable-background:new 0 0 950 221;" xml:space="preserve">
<style type="text/css">
	.st0{fill:url(#SVGID_1_);}
	.st1{fill:url(#SVGID_2_);}
	.st2{fill:url(#SVGID_3_);}
</style>
<g>
	
		<linearGradient id="SVGID_1_" gradientUnits="userSpaceOnUse" x1="293.379" y1="113.6574" x2="649.6867" y2="101.6574" gradientTransform="matrix(1 0 0 -1 0 222)">
		<stop  offset="0" style="stop-color:#4EEFD1"/>
		<stop  offset="1" style="stop-color:#00C9FF"/>
	</linearGradient>
	<path class="st0" d="M402.5,131.4c0-2.9-0.5-5.6-1.4-8.2c-0.9-2.5-2.2-4.9-3.8-7.1c-1.6-2.2-3.6-4.2-5.8-6
		c-1.2-0.9-2.4-1.8-3.7-2.7c3.6-2.8,6.4-6.1,8.3-9.8c2.4-4.8,3.7-10.1,3.7-15.7c0-5-1.1-9.6-3.3-13.8c-2.2-4.1-5.3-7.7-9.3-10.7
		c-4-2.9-8.8-5.1-14.3-6.7c-5.5-1.6-11.7-2.4-18.5-2.4c-8,0-15.5,1.2-22.3,3.4c-6.9,2.3-12.8,5.5-17.6,9.5l-1.5,1.3l7.7,14.3
		l0.1,0.1c1,1.6,2,2.7,3.2,3.6c1.3,0.9,3,1.4,4.9,1.4c1.7,0,3.5-0.5,5.3-1.4c1.5-0.8,3.3-1.6,5.2-2.6c1.9-0.9,4.1-1.7,6.5-2.5
		c2.4-0.7,5.2-1.1,8.4-1.1c5.4,0,9.4,0.9,12,2.8c2.4,1.7,3.4,3.8,3.4,6.7c0,3.5-1.3,6-3.8,7.8c-2.8,2-7.4,2.9-13.5,2.9h-17.3l0.1,26
		h19.5c2.8-0.1,5.3,0.2,7.6,0.7c2.2,0.5,4.1,1.3,5.6,2.3c1.5,1,2.6,2.2,3.4,3.6c0.8,1.4,1.2,3,1.2,4.9c0,2.6-0.4,4.8-1.1,6.5
		c-0.7,1.6-1.7,2.9-3,4c-1.3,1-3,1.8-5,2.3c-2.1,0.5-4.6,0.8-7.4,0.8c-3.9,0-7.2-0.5-10-1.4c-2.9-1-5.4-2-7.6-3.2
		c-2.2-1.2-4.2-2.3-6-3.3c-3.9-2.2-7.8-2.5-11-0.6c-1.3,0.8-2.4,1.8-3.3,3l-9.2,14.5l1.5,1.4c2.6,2.4,5.7,4.6,9.1,6.6
		c3.4,1.9,7.1,3.6,10.9,5c3.9,1.4,8,2.5,12.1,3.3c4.2,0.8,8.4,1.2,12.5,1.2c7.4,0,14.2-1.1,20-3.1c5.9-2.1,10.9-5,15-8.7
		c4.1-3.7,7.3-8.1,9.4-13.1C401.4,142.5,402.5,137.1,402.5,131.4z"/>
	
		<linearGradient id="SVGID_2_" gradientUnits="userSpaceOnUse" x1="293.4705" y1="116.3737" x2="649.7782" y2="104.3737" gradientTransform="matrix(1 0 0 -1 0 222)">
		<stop  offset="0" style="stop-color:#4EEFD1"/>
		<stop  offset="1" style="stop-color:#00C9FF"/>
	</linearGradient>
	<path class="st1" d="M446.3,49.7l-47.1,121.6H424c2.8,0,5.2-0.8,7.2-2.3c1.9-1.5,3.2-3.2,3.9-5.1l6.3-18.7h40.7l6.3,18.6l0.1,0.2
		c0.9,2.1,2.3,3.8,4.1,5.2c1.9,1.4,4.3,2.1,7.2,2.1h24.6l-47-121.6H446.3z M449.4,121.7l9.6-28.4c0.8-2.1,1.7-4.5,2.5-7.3
		c0.1-0.3,0.2-0.6,0.3-0.9c0.1,0.3,0.2,0.6,0.3,0.8c0.9,2.7,1.8,5.2,2.6,7.2l9.6,28.6L449.4,121.7L449.4,121.7z"/>
	
		<linearGradient id="SVGID_3_" gradientUnits="userSpaceOnUse" x1="293.6216" y1="120.8602" x2="649.9293" y2="108.8602" gradientTransform="matrix(1 0 0 -1 0 222)">
		<stop  offset="0" style="stop-color:#4EEFD1"/>
		<stop  offset="1" style="stop-color:#00C9FF"/>
	</linearGradient>
	<path class="st2" d="M558,49.7l-0.1,2.4c-0.3,11.6-0.7,21.9-1.4,30.8c-0.6,8.9-1.4,16.7-2.3,23.3c-0.9,6.6-1.8,12.2-2.9,16.8
		c-1.1,4.6-2.2,8.4-3.3,11.4c-1.1,2.9-2.3,5.2-3.4,6.8c-1.1,1.5-2.3,2.7-3.4,3.4c-1,0.7-2,1.1-2.9,1.3c-1.1,0.2-2.2,0.3-3.3,0.3
		h-9.2v18.9c0,1.5,0.6,4.3,4.5,6c2.3,1,5.9,1.4,11,1.4c4,0,7.9-0.5,11.6-1.4c3.8-0.9,7.5-2.8,10.8-5.5c3.2-2.7,6.3-6.4,9-11.1
		c2.7-4.6,5.1-10.8,7.1-18.2c2-7.3,3.8-16.3,5.3-26.8c1.4-9.8,2.5-21.5,3.3-34.8h20.9v96.5h32.2V49.7H558z"/>
</g>
</svg>
