<?xml version="1.0" encoding="utf-8"?>
<!-- Generator: Adobe Illustrator 24.2.1, SVG Export Plug-In . SVG Version: 6.00 Build 0)  -->
<svg version="1.1" id="Layer_1" xmlns="http://www.w3.org/2000/svg" xmlns:xlink="http://www.w3.org/1999/xlink" x="0px" y="0px"
	 viewBox="0 0 950 221" style="enable-background:new 0 0 950 221;" xml:space="preserve">
<style type="text/css">
	.st0{fill:url(#SVGID_1_);}
	.st1{fill:url(#SVGID_2_);}
	.st2{fill:url(#SVGID_3_);}
	.st3{fill:url(#SVGID_4_);}
	.st4{fill:url(#SVGID_5_);}
	.st5{fill:url(#SVGID_6_);}
	.st6{fill:url(#SVGID_7_);}
	.st7{fill:url(#SVGID_8_);}
	.st8{fill:url(#SVGID_9_);}
</style>
<g>
	
		<linearGradient id="SVGID_1_" gradientUnits="userSpaceOnUse" x1="115.55" y1="111.55" x2="212.45" y2="111.55" gradientTransform="matrix(1 0 0 -1 0 222)">
		<stop  offset="0" style="stop-color:#4EEFD1"/>
		<stop  offset="1" style="stop-color:#00C9FF"/>
	</linearGradient>
	<path class="st0" d="M115.5,74.3h33.9v96.7h29.1V74.3h33.9V50h-96.9V74.3z M120.5,55h86.9v14.4h-33.9v96.7h-19.1V69.3h-33.9V55z"/>
	
		<linearGradient id="SVGID_2_" gradientUnits="userSpaceOnUse" x1="221.85" y1="111.5" x2="311.85" y2="111.5" gradientTransform="matrix(1 0 0 -1 0 222)">
		<stop  offset="0" style="stop-color:#4EEFD1"/>
		<stop  offset="1" style="stop-color:#00C9FF"/>
	</linearGradient>
	<path class="st1" d="M300.1,61.2c-4-3.6-9.1-6.3-15.2-8.3c-6-1.9-13.2-2.9-21.4-2.9h-41.7v121.1h29v-39.9h12.7c8,0,15-1,21-3
		c6.1-2,11.2-4.8,15.2-8.5c4.1-3.7,7.1-8.1,9.1-13.2c2-5,3-10.6,3-16.6c0-5.7-1-11-2.9-15.9C307.1,69.1,304.1,64.8,300.1,61.2z
		 M304.3,104.7c-1.7,4.4-4.4,8.2-7.8,11.3c-3.5,3.2-8,5.7-13.4,7.4c-5.5,1.8-12,2.7-19.5,2.7h-17.7V166h-19V55h36.7
		c7.6,0,14.3,0.9,19.8,2.7c5.4,1.8,9.9,4.2,13.4,7.3c3.4,3.1,6,6.7,7.6,10.9c1.7,4.3,2.5,9,2.5,14.1
		C306.9,95.3,306,100.3,304.3,104.7z"/>
	
		<linearGradient id="SVGID_3_" gradientUnits="userSpaceOnUse" x1="245.9015" y1="131.6" x2="287.8614" y2="131.6" gradientTransform="matrix(1 0 0 -1 0 222)">
		<stop  offset="0" style="stop-color:#4EEFD1"/>
		<stop  offset="1" style="stop-color:#00C9FF"/>
	</linearGradient>
	<path class="st2" d="M281.7,74.1c-2-1.9-4.6-3.4-7.7-4.4c-3-1-6.5-1.5-10.5-1.5h-17.7v44.5h17.7c8.2,0,14.4-2.1,18.3-6.2
		s5.9-9.7,5.9-16.6c0-3.2-0.5-6.1-1.5-8.7C285.3,78.5,283.8,76.1,281.7,74.1z M278.3,103.1c-3,3.1-7.9,4.7-14.7,4.7h-12.7V73.2h12.7
		c3.4,0,6.4,0.4,8.9,1.2c2.4,0.8,4.3,1.9,5.8,3.3s2.6,3.1,3.4,5.1c0.8,2.1,1.2,4.4,1.2,7C282.8,95.6,281.3,99.8,278.3,103.1z"/>
	
		<linearGradient id="SVGID_4_" gradientUnits="userSpaceOnUse" x1="322.25" y1="111.5" x2="401.15" y2="111.5" gradientTransform="matrix(1 0 0 -1 0 222)">
		<stop  offset="0" style="stop-color:#4EEFD1"/>
		<stop  offset="1" style="stop-color:#00C9FF"/>
	</linearGradient>
	<path class="st3" d="M322.2,171.1h78.9v-23.8h-49.8v-25.5h38.8V98.6h-38.7V73.8h49.7V50h-78.9V171.1z M327.2,55h68.9v13.8h-49.8
		v34.8h38.8v13.2h-38.7v35.5h49.7v13.8h-68.9V55z"/>
	
		<linearGradient id="SVGID_5_" gradientUnits="userSpaceOnUse" x1="414.05" y1="111.5" x2="518.55" y2="111.5" gradientTransform="matrix(1 0 0 -1 0 222)">
		<stop  offset="0" style="stop-color:#4EEFD1"/>
		<stop  offset="1" style="stop-color:#00C9FF"/>
	</linearGradient>
	<path class="st4" d="M489.3,99.3h-46.1V50H414v121.1h29.2v-50h46.1v50h29.2V50h-29.2V99.3z M494.3,55h19.2v111.1h-19.2v-50h-56.1
		v50H419V55h19.2v49.3h56.1V55z"/>
	
		<linearGradient id="SVGID_6_" gradientUnits="userSpaceOnUse" x1="537.85" y1="111.5" x2="616.75" y2="111.5" gradientTransform="matrix(1 0 0 -1 0 222)">
		<stop  offset="0" style="stop-color:#4EEFD1"/>
		<stop  offset="1" style="stop-color:#00C9FF"/>
	</linearGradient>
	<path class="st5" d="M537.8,171.1h78.9v-23.8H567v-25.5h38.7V98.6H567V73.8h49.8V50h-78.9L537.8,171.1L537.8,171.1z M542.8,55h68.9
		v13.8H562v34.8h38.7v13.2H562v35.5h49.8v13.8h-68.9V55z"/>
	
		<linearGradient id="SVGID_7_" gradientUnits="userSpaceOnUse" x1="653.65" y1="131.6" x2="695.61" y2="131.6" gradientTransform="matrix(1 0 0 -1 0 222)">
		<stop  offset="0" style="stop-color:#4EEFD1"/>
		<stop  offset="1" style="stop-color:#00C9FF"/>
	</linearGradient>
	<path class="st6" d="M689.5,74.1c-2-1.9-4.6-3.4-7.7-4.4c-3-1-6.5-1.5-10.5-1.5h-17.7v44.5h17.7c8.2,0,14.4-2.1,18.3-6.2
		c3.9-4.1,5.9-9.7,5.9-16.6c0-3.2-0.5-6.1-1.5-8.7C693.1,78.5,691.5,76.1,689.5,74.1z M686,103.1c-3,3.1-7.9,4.7-14.7,4.7h-12.7
		V73.2h12.7c3.4,0,6.4,0.4,8.9,1.2c2.4,0.8,4.3,1.9,5.8,3.3s2.6,3.1,3.4,5.1c0.8,2.1,1.2,4.4,1.2,7C690.6,95.6,689.1,99.8,686,103.1
		z"/>
	
		<linearGradient id="SVGID_8_" gradientUnits="userSpaceOnUse" x1="629.6499" y1="111.5" x2="719.6499" y2="111.5" gradientTransform="matrix(1 0 0 -1 0 222)">
		<stop  offset="0" style="stop-color:#4EEFD1"/>
		<stop  offset="1" style="stop-color:#00C9FF"/>
	</linearGradient>
	<path class="st7" d="M707.9,61.2c-4-3.6-9.1-6.3-15.2-8.3c-6-1.9-13.2-2.9-21.4-2.9h-41.7v121.1h29v-39.9h12.7c8,0,15-1,21-3
		c6.1-2,11.2-4.8,15.2-8.5c4.1-3.7,7.1-8.1,9.1-13.2c2-5,3-10.6,3-16.6c0-5.7-1-11-2.9-15.9C714.9,69.1,711.9,64.8,707.9,61.2z
		 M712,104.7c-1.7,4.4-4.4,8.2-7.8,11.3c-3.5,3.2-8,5.7-13.4,7.4c-5.5,1.8-12,2.7-19.5,2.7h-17.7V166h-19V55h36.7
		c7.6,0,14.3,0.9,19.8,2.7c5.4,1.8,9.9,4.2,13.4,7.3c3.4,3.1,6,6.7,7.6,10.9c1.7,4.3,2.5,9,2.5,14.1
		C714.6,95.3,713.8,100.3,712,104.7z"/>
	
		<linearGradient id="SVGID_9_" gradientUnits="userSpaceOnUse" x1="729.95" y1="111.5" x2="834.45" y2="111.5" gradientTransform="matrix(1 0 0 -1 0 222)">
		<stop  offset="0" style="stop-color:#4EEFD1"/>
		<stop  offset="1" style="stop-color:#00C9FF"/>
	</linearGradient>
	<path class="st8" d="M813.8,50c-1.5,0-2.9,0.3-4.3,0.8c-1.2,0.5-2.4,1.2-3.5,2c-1,0.8-2,1.7-2.8,2.7s-1.5,1.9-2.1,2.9l-40.3,65.1
		c-0.6,1-1.2,2.1-1.8,3.2c0.1-1.8,0.1-3.5,0.1-5.1V50H730v121.1h20.6c1.5,0,2.9-0.3,4.3-0.8c1.3-0.5,2.4-1.2,3.5-2.1
		c1-0.8,1.9-1.7,2.7-2.6c0.8-1,1.6-2,2.2-3l40.3-65.1c0.6-1,1.2-2.1,1.8-3.2c-0.1,1.8-0.1,3.5-0.1,5.1V171h29.2V50H813.8z
		 M829.4,166.1h-19.2V99.3c0-2.8,0.1-5.8,0.2-8.9c0.2-3.1,0.5-6.4,0.9-9.9l-4.8-1.2c-1.1,3.1-2.4,5.9-3.7,8.6
		c-1.3,2.6-2.6,5-3.7,6.9l-40.3,65.1c-0.5,0.8-1,1.5-1.6,2.3c-0.7,0.7-1.4,1.4-2.1,2.1c-0.7,0.6-1.4,1-2.2,1.3
		c-0.7,0.3-1.5,0.5-2.4,0.5H735V55h19.2v66.7c0,2.8-0.1,5.8-0.2,9c-0.2,3.1-0.5,6.4-0.9,9.8l4.8,1.2c1.1-3,2.3-5.9,3.6-8.5
		c1.3-2.7,2.6-5,3.8-6.9l40.2-65.1c0.5-0.7,1-1.5,1.7-2.3c0.6-0.7,1.3-1.4,2.1-2c0.7-0.5,1.5-1,2.3-1.3c0.7-0.3,1.5-0.5,2.4-0.5
		h15.6L829.4,166.1L829.4,166.1z"/>
</g>
</svg>
