<?xml version="1.0" encoding="utf-8"?>
<!-- Generator: Adobe Illustrator 24.2.1, SVG Export Plug-In . SVG Version: 6.00 Build 0)  -->
<svg version="1.1" id="Layer_1" xmlns="http://www.w3.org/2000/svg" xmlns:xlink="http://www.w3.org/1999/xlink" x="0px" y="0px"
	 viewBox="0 0 950 221" style="enable-background:new 0 0 950 221;" xml:space="preserve">
<style type="text/css">
	.st0{fill:url(#SVGID_1_);}
	.st1{fill:url(#SVGID_2_);}
	.st2{fill:url(#SVGID_3_);}
	.st3{fill:url(#SVGID_4_);}
	.st4{fill:url(#SVGID_5_);}
	.st5{fill:url(#SVGID_6_);}
	.st6{fill:url(#SVGID_7_);}
</style>
<g>
	
		<linearGradient id="SVGID_1_" gradientUnits="userSpaceOnUse" x1="108.1729" y1="111.3166" x2="835.5574" y2="115.0089" gradientTransform="matrix(1 0 0 -1 0 222)">
		<stop  offset="0" style="stop-color:#4EEFD1"/>
		<stop  offset="1" style="stop-color:#00C9FF"/>
	</linearGradient>
	<polygon class="st0" points="112.9,76.2 145.7,76.2 145.7,171.3 177.7,171.3 177.7,76.2 210.5,76.2 210.5,49.7 112.9,49.7 	"/>
	
		<linearGradient id="SVGID_2_" gradientUnits="userSpaceOnUse" x1="108.1752" y1="110.8602" x2="835.5598" y2="114.5524" gradientTransform="matrix(1 0 0 -1 0 222)">
		<stop  offset="0" style="stop-color:#4EEFD1"/>
		<stop  offset="1" style="stop-color:#00C9FF"/>
	</linearGradient>
	<path class="st1" d="M300.2,61.3c-4-3.6-9.3-6.5-15.4-8.6c-6.1-2-13.5-3.1-21.9-3.1h-43.6v121.6h32v-39h11.6c8.3,0,15.6-1,21.7-3
		c6.2-2,11.4-4.9,15.5-8.6c4.1-3.7,7.2-8.2,9.2-13.4c2-5.1,3-10.8,3-16.9c0-5.7-1-11-2.9-15.9C307.3,69.4,304.3,65,300.2,61.3z
		 M262.8,106.9h-11.6V75h11.6c3.1,0,5.8,0.4,8,1.1c2.1,0.7,3.9,1.8,5.2,3.1c1.4,1.3,2.4,2.9,3,4.7c0.7,1.9,1,4.1,1,6.4
		c0,5.4-1.3,9.5-4,12.4C273.6,105.5,269.1,106.9,262.8,106.9z"/>
	
		<linearGradient id="SVGID_3_" gradientUnits="userSpaceOnUse" x1="108.1784" y1="110.2218" x2="835.563" y2="113.9141" gradientTransform="matrix(1 0 0 -1 0 222)">
		<stop  offset="0" style="stop-color:#4EEFD1"/>
		<stop  offset="1" style="stop-color:#00C9FF"/>
	</linearGradient>
	<polygon class="st2" points="320.9,171.3 401,171.3 401,145.5 353.1,145.5 353.1,122.7 389.8,122.7 389.8,97.7 353.1,97.7 
		353.1,75.5 401,75.5 401,49.7 320.9,49.7 	"/>
	
		<linearGradient id="SVGID_4_" gradientUnits="userSpaceOnUse" x1="108.1811" y1="109.6887" x2="835.5657" y2="113.381" gradientTransform="matrix(1 0 0 -1 0 222)">
		<stop  offset="0" style="stop-color:#4EEFD1"/>
		<stop  offset="1" style="stop-color:#00C9FF"/>
	</linearGradient>
	<polygon class="st3" points="487.2,98.4 444.8,98.4 444.8,49.7 412.6,49.7 412.6,171.3 444.8,171.3 444.8,122 487.2,122 
		487.2,171.3 519.4,171.3 519.4,49.7 487.2,49.7 	"/>
	
		<linearGradient id="SVGID_5_" gradientUnits="userSpaceOnUse" x1="108.184" y1="109.1254" x2="835.5685" y2="112.8178" gradientTransform="matrix(1 0 0 -1 0 222)">
		<stop  offset="0" style="stop-color:#4EEFD1"/>
		<stop  offset="1" style="stop-color:#00C9FF"/>
	</linearGradient>
	<polygon class="st4" points="536.9,171.3 617,171.3 617,145.5 569.1,145.5 569.1,122.7 605.8,122.7 605.8,97.7 569.1,97.7 
		569.1,75.5 617,75.5 617,49.7 536.9,49.7 	"/>
	
		<linearGradient id="SVGID_6_" gradientUnits="userSpaceOnUse" x1="108.1857" y1="108.7819" x2="835.5703" y2="112.4742" gradientTransform="matrix(1 0 0 -1 0 222)">
		<stop  offset="0" style="stop-color:#4EEFD1"/>
		<stop  offset="1" style="stop-color:#00C9FF"/>
	</linearGradient>
	<path class="st5" d="M709.6,61.3c-4-3.6-9.3-6.5-15.4-8.6c-6.1-2-13.5-3.1-21.9-3.1h-43.6v121.6h32v-39h11.6c8.3,0,15.6-1,21.7-3
		c6.2-2,11.4-4.9,15.5-8.6c4.1-3.7,7.2-8.2,9.2-13.4c2-5.1,3-10.8,3-16.9c0-5.7-1-11-2.9-15.9C716.8,69.4,713.7,65,709.6,61.3z
		 M672.2,106.9h-11.6V75h11.6c3.1,0,5.8,0.4,8,1.1c2.1,0.7,3.9,1.8,5.2,3.1c1.4,1.3,2.4,2.9,3,4.7c0.7,1.9,1,4.1,1,6.4
		c0,5.4-1.3,9.5-4,12.4C683,105.5,678.5,106.9,672.2,106.9z"/>
	
		<linearGradient id="SVGID_7_" gradientUnits="userSpaceOnUse" x1="108.1893" y1="108.0756" x2="835.574" y2="111.768" gradientTransform="matrix(1 0 0 -1 0 222)">
		<stop  offset="0" style="stop-color:#4EEFD1"/>
		<stop  offset="1" style="stop-color:#00C9FF"/>
	</linearGradient>
	<path class="st6" d="M814.2,49.7c-1.6,0-3.2,0.3-4.6,0.9c-1.4,0.6-2.7,1.3-3.8,2.2c-1.2,0.9-2.2,1.9-3.1,3
		c-0.9,1.1-1.7,2.1-2.4,3.2l-35.4,60.5c-0.8,1.2-1.6,2.6-2.4,4.1c0.1-2.1,0.1-4.2,0.1-6.2V49.7h-32.2v121.6h22.9
		c1.6,0,3.2-0.3,4.6-0.9c1.4-0.6,2.7-1.3,3.8-2.2c1.1-0.9,2.2-1.9,3.1-3c0.9-1.1,1.7-2.1,2.4-3.3l35.4-60.5c0.8-1.2,1.5-2.6,2.4-4.1
		c-0.1,2.1-0.1,4.1-0.1,6.1v67.8h32.2V49.7H814.2z"/>
</g>
</svg>
