<svg width="141" height="141" viewBox="0 0 141 141" fill="none" xmlns="http://www.w3.org/2000/svg">
<path fillRule="evenodd" clip-rule="evenodd" d="M37.3075 22.8013C43.9699 19.3856 51.3519 17.6109 58.8389 17.6251C67.6365 17.6088 76.2615 20.066 83.7295 24.7164C91.1976 29.3667 97.2079 36.0229 101.075 43.9252C104.941 51.8276 106.508 60.6578 105.597 69.4081C104.686 78.1584 101.334 86.4763 95.9219 93.4126L121.754 119.221C122.824 120.329 123.417 121.814 123.403 123.354C123.39 124.894 122.772 126.368 121.683 127.457C120.593 128.546 119.12 129.164 117.579 129.178C116.039 129.191 114.555 128.599 113.447 127.529L87.6264 101.708C81.7191 106.308 74.7985 109.43 67.4406 110.815C60.0827 112.199 52.5006 111.805 45.3255 109.667C38.1505 107.529 31.5901 103.707 26.1907 98.5203C20.7913 93.3337 16.709 86.9322 14.2839 79.8489C11.8588 72.7655 11.161 65.2053 12.2485 57.7978C13.3361 50.3902 16.1775 43.3497 20.5363 37.2623C24.8951 31.175 30.6451 26.2171 37.3075 22.8013ZM39.255 93.9344C45.0519 97.8077 51.8671 99.8751 58.8389 99.8751C68.1849 99.8657 77.1455 96.1489 83.7541 89.5403C90.3627 82.9317 94.0795 73.9711 94.0889 64.6251C94.0889 57.6533 92.0215 50.8381 88.1482 45.0412C84.2749 39.2444 78.7696 34.7263 72.3285 32.0583C65.8874 29.3903 58.7998 28.6923 51.9619 30.0524C45.1241 31.4125 38.8432 34.7698 33.9134 39.6996C28.9836 44.6294 25.6263 50.9103 24.2662 57.7481C22.9061 64.586 23.6041 71.6736 26.2721 78.1147C28.9401 84.5558 33.4582 90.0611 39.255 93.9344ZM64.7139 58.75H76.4639C78.0221 58.75 79.5164 59.369 80.6182 60.4707C81.72 61.5725 82.3389 63.0669 82.3389 64.625C82.3389 66.1831 81.72 67.6775 80.6182 68.7793C79.5164 69.881 78.0221 70.5 76.4639 70.5H64.7139V82.25C64.7139 83.8081 64.095 85.3025 62.9932 86.4043C61.8914 87.506 60.3971 88.125 58.8389 88.125C57.2808 88.125 55.7865 87.506 54.6847 86.4043C53.5829 85.3025 52.9639 83.8081 52.9639 82.25V70.5H41.2139C39.6558 70.5 38.1615 69.881 37.0597 68.7793C35.9579 67.6775 35.3389 66.1831 35.3389 64.625C35.3389 63.0669 35.9579 61.5725 37.0597 60.4707C38.1615 59.369 39.6558 58.75 41.2139 58.75H52.9639V47C52.9639 45.4419 53.5829 43.9475 54.6847 42.8457C55.7865 41.744 57.2808 41.125 58.8389 41.125C60.3971 41.125 61.8914 41.744 62.9932 42.8457C64.095 43.9475 64.7139 45.4419 64.7139 47V58.75Z" fill="white"/>
</svg>
