<svg width="70" height="70" viewBox="0 0 70 70" fill="none" xmlns="http://www.w3.org/2000/svg">
<circle cx="35.0002" cy="35" r="28.6667" stroke="white"/>
<path fillRule="evenodd" clipRule="evenodd" d="M32.3344 34.8421L40.6798 26.4967C41.1936 25.9829 41.1943 25.1516 40.6821 24.6394C40.1662 24.1236 39.3383 24.1282 38.8247 24.6417L29.5541 33.9123C29.5538 33.9126 29.5534 33.913 29.553 33.9134C29.5526 33.9138 29.5522 33.9142 29.5519 33.9146C29.2943 34.1721 29.1665 34.5074 29.167 34.8426C29.1682 35.1786 29.2961 35.5138 29.5519 35.7696C29.5522 35.77 29.5526 35.7704 29.553 35.7707C29.5534 35.7711 29.5538 35.7715 29.5541 35.7719L38.8247 45.0425C39.3385 45.5563 40.1698 45.557 40.6821 45.0448C41.1979 44.5289 41.1933 43.701 40.6798 43.1874L32.3344 34.8421Z" fill="white"/>
</svg>
