<svg width="65" height="64" viewBox="0 0 65 64" fill="none" xmlns="http://www.w3.org/2000/svg">
<circle cx="32.5" cy="32" r="32" fill="url(#paint0_linear)"/>
<path d="M45.8183 19.6346C45.8061 19.5389 45.7849 19.4466 45.7499 19.3601C45.7489 19.3579 45.7489 19.355 45.7483 19.3522C45.7483 19.3517 45.7478 19.3512 45.7472 19.3506C45.7087 19.2595 45.6561 19.1767 45.5967 19.1C45.582 19.0818 45.5677 19.0639 45.5522 19.0468C45.4887 18.9752 45.4198 18.909 45.3398 18.855C45.3376 18.8534 45.3349 18.8528 45.3327 18.8512C45.2554 18.8002 45.17 18.7617 45.0805 18.7313C45.0582 18.7234 45.0365 18.7167 45.0137 18.7107C44.9199 18.6852 44.8233 18.6667 44.7216 18.6667H36.9438C36.3305 18.6667 35.8327 19.1645 35.8327 19.7779C35.8327 20.3912 36.3305 20.889 36.9438 20.889H42.0387L35.4071 27.5206C33.6387 26.1063 31.4615 25.3334 29.166 25.3334C23.6522 25.3334 19.166 29.8196 19.166 35.3334C19.166 40.8472 23.6522 45.3334 29.166 45.3334C34.6798 45.3334 39.166 40.8472 39.166 35.3334C39.166 33.039 38.3937 30.8624 36.9782 29.0924L43.6105 22.4602V27.5556C43.6105 28.169 44.1082 28.6667 44.7216 28.6667C45.3349 28.6667 45.8327 28.169 45.8327 27.5556V19.7779C45.8327 19.7545 45.8273 19.7323 45.8259 19.7095C45.8243 19.684 45.8216 19.6596 45.8183 19.6346ZM29.166 43.1112C24.877 43.1112 21.3882 39.6224 21.3882 35.3334C21.3882 31.0444 24.877 27.5556 29.166 27.5556C31.2426 27.5556 33.1976 28.364 34.6676 29.8289C36.1354 31.3018 36.9438 33.2569 36.9438 35.3334C36.9438 39.6224 33.455 43.1112 29.166 43.1112Z" fill="#171E26"/>
<defs>
<linearGradient id="paint0_linear" x1="58.4282" y1="-16.9412" x2="-18.1234" y2="-8.43222" gradientUnits="userSpaceOnUse">
<stop stop-color="#4EEFD1"/>
<stop offset="1" stop-color="#00C9FF"/>
</linearGradient>
</defs>
</svg>
