<svg width="70" height="70" viewBox="0 0 70 70" fill="none" xmlns="http://www.w3.org/2000/svg">
<circle cx="35.0002" cy="35" r="28.6667" stroke="white"/>
<path fillRule="evenodd" clipRule="evenodd" d="M39.1275 34.8407L30.7821 43.186C30.2683 43.6998 30.2676 44.5311 30.7798 45.0434C31.2957 45.5592 32.1237 45.5546 32.6372 45.0411L41.9078 35.7705C41.9081 35.7701 41.9085 35.7697 41.9089 35.7693C41.9093 35.7689 41.9097 35.7686 41.9101 35.7682C42.1676 35.5107 42.2954 35.1753 42.2949 34.8402C42.2937 34.5042 42.1658 34.1689 41.9101 33.9131C41.9097 33.9128 41.9093 33.9124 41.9089 33.912C41.9085 33.9116 41.9081 33.9112 41.9078 33.9109L32.6372 24.6403C32.1234 24.1265 31.2921 24.1257 30.7798 24.638C30.264 25.1538 30.2686 25.9818 30.7821 26.4953L39.1275 34.8407Z" fill="white"/>
</svg>
