<svg width="64" height="64" viewBox="0 0 64 64" fill="none" xmlns="http://www.w3.org/2000/svg">
<circle cx="32" cy="32" r="32" fill="url(#paint0_linear)"/>
<path d="M41.5549 28.1112C41.5549 22.9034 37.3182 18.6667 32.1105 18.6667C26.9027 18.6667 22.666 22.9034 22.666 28.1112C22.666 32.9422 26.3143 36.9317 30.9993 37.4846V39.7779H28.7771C28.1638 39.7779 27.666 40.2756 27.666 40.889C27.666 41.5023 28.1638 42.0001 28.7771 42.0001H30.9993V44.2223C30.9993 44.8356 31.4971 45.3334 32.1105 45.3334C32.7238 45.3334 33.2216 44.8356 33.2216 44.2223V42.0001H35.4438C36.0571 42.0001 36.5549 41.5023 36.5549 40.889C36.5549 40.2756 36.0571 39.7779 35.4438 39.7779H33.2216V37.4846C37.9066 36.9317 41.5549 32.9422 41.5549 28.1112ZM24.8882 28.1112C24.8882 24.129 28.1283 20.889 32.1105 20.889C36.0927 20.889 39.3327 24.129 39.3327 28.1112C39.3327 32.0934 36.0927 35.3334 32.1105 35.3334C28.1283 35.3334 24.8882 32.0934 24.8882 28.1112Z" fill="#171E26"/>
<defs>
<linearGradient id="paint0_linear" x1="57.9282" y1="-16.9412" x2="-18.6234" y2="-8.43222" gradientUnits="userSpaceOnUse">
<stop stopColor="#4EEFD1"/>
<stop offset="1" stopColor="#00C9FF"/>
</linearGradient>
</defs>
</svg>
