<svg width="18" height="14" viewBox="0 0 18 14" fill="none" xmlns="http://www.w3.org/2000/svg">
<path d="M15.4347 0.334136C14.9554 0.348105 14.5003 0.548044 14.1659 0.891626C11.2864 3.77734 9.06651 6.19699 6.42832 8.89834L3.7466 6.62994C3.56292 6.46473 3.34794 6.33808 3.1144 6.2575C2.88086 6.17691 2.63353 6.14402 2.38705 6.1608C2.14057 6.17757 1.89997 6.24366 1.6795 6.35514C1.45903 6.46662 1.26319 6.62122 1.10358 6.80979C0.943974 6.99836 0.823847 7.21705 0.750321 7.4529C0.676796 7.68875 0.651369 7.93698 0.675548 8.18284C0.699726 8.4287 0.773019 8.66721 0.89108 8.88423C1.00914 9.10124 1.16957 9.29234 1.36285 9.4462L5.3614 12.8296C5.71516 13.1289 6.16858 13.2842 6.63158 13.2646C7.09458 13.245 7.53327 13.052 7.86049 12.7239C11.1795 9.39776 13.5376 6.74619 16.7803 3.49646C17.0452 3.2366 17.2255 2.90294 17.2979 2.53901C17.3703 2.17509 17.3313 1.7978 17.186 1.45638C17.0407 1.11496 16.7959 0.825236 16.4835 0.625046C16.171 0.424856 15.8055 0.323474 15.4347 0.334136V0.334136Z" fill="white"/>
</svg>
